<?xml version="1.0" encoding="utf-8"?>
<!-- Generator: Adobe Illustrator 20.1.0, SVG Export Plug-In . SVG Version: 6.00 Build 0)  -->
<svg version="1.1" id="Layer_1" xmlns="http://www.w3.org/2000/svg" xmlns:xlink="http://www.w3.org/1999/xlink" x="0px" y="0px"
	 viewBox="0 0 72.4 54" enable-background="new 0 0 72.4 54" xml:space="preserve">
<g>
	<path fill="#F272A6" d="M55,19.4l0,0.5l2,0l-4.5,3.3L45,18.7l-3.7,3.2c0.1,0.1,0.2,0.3,0.2,0.5l3.6-3l7.4,4.4l4.7-3.4l-0.2,1.8
		l0.5,0l0.3-2.7L55,19.4z"/>
	<g>
		<path fill="#F272A6" d="M16.9,32.8v0.7l2.5-1.5c-0.1-0.2-0.1-0.3-0.2-0.5L16.9,32.8z"/>
		<path fill="#F272A6" d="M39.2,25.7l-9.3,8l-7.3-8.3c-0.1,0.4-0.2,0.8-0.3,1.2l7.5,8.4l9.6-8.3C39.3,26.5,39.3,26.1,39.2,25.7z"/>
	</g>
	<g>
		<path fill="#7886A2" d="M71,4.3l-66.6-4C3.6,0.2,3,0.8,3,1.6L0.2,48.3c0,0.4,0.1,0.7,0.3,1c0.2,0.3,0.6,0.4,0.9,0.4l66.6,4
			c0,0,0.1,0,0.1,0c0.7,0,1.3-0.5,1.3-1.3l2.8-46.8C72.3,4.9,71.7,4.3,71,4.3z M68.5,52.4c0,0.2-0.2,0.3-0.4,0.3l-66.6-4
			c-0.1,0-0.2,0-0.2-0.1s-0.1-0.2-0.1-0.2L4,1.6c0-0.2,0.2-0.3,0.3-0.3c0,0,0,0,0,0l66.6,4c0.2,0,0.3,0.2,0.3,0.4L68.5,52.4z"/>
		<path fill="#7886A2" d="M62.8,9.6L8.5,6.3c-0.2,0-0.4,0.1-0.6,0.2C7.8,6.7,7.7,6.9,7.7,7.1L5.5,43.4c0,0.4,0.3,0.8,0.8,0.9
			l54.2,3.2c0,0,0,0,0.1,0c0.2,0,0.4-0.1,0.5-0.2c0.2-0.1,0.3-0.3,0.3-0.6l2.2-36.3c0-0.2-0.1-0.4-0.2-0.6S63,9.6,62.8,9.6z
			 M60.8,46.7c0,0.1,0,0.2-0.1,0.2c-0.1,0.1-0.1,0.1-0.2,0.1L6.3,43.7c-0.2,0-0.3-0.2-0.3-0.3L8.1,7.1c0-0.1,0-0.2,0.1-0.2
			c0.1,0,0.1-0.1,0.2-0.1c0,0,0,0,0,0l54.2,3.2c0.1,0,0.2,0,0.2,0.1s0.1,0.1,0.1,0.2L60.8,46.7z"/>
		<path fill="#7886A2" d="M66,27.3c-0.8,0-1.5,0.6-1.6,1.4c0,0.8,0.6,1.5,1.4,1.6c0,0,0.1,0,0.1,0c0.8,0,1.4-0.6,1.5-1.4
			C67.4,28,66.8,27.3,66,27.3z M65.8,29.7c-0.5,0-1-0.5-0.9-1c0-0.5,0.5-0.9,1-0.9c0,0,0,0,0.1,0c0.5,0,1,0.5,0.9,1
			C66.8,29.4,66.4,29.8,65.8,29.7z"/>
		<polygon fill="#7886A2" points="15.5,14.7 15,14.7 13.4,40.2 56.1,42.8 56.1,42.3 14,39.8 		"/>
	</g>
</g>
<path fill="#F4B971" d="M20.3,31.2c0.9,2.9,3,5.5,6.1,6.8c1.5,0.6,3,0.9,4.5,0.9c1.4,0,2.7-0.3,4-0.7c2.4-0.9,4.5-2.7,5.8-5.2l9.2,4
	l0.6-1.3l-9.2-4c1.1-2.9,0.8-6.1-0.5-8.7c-0.1-0.2-0.2-0.3-0.2-0.5c-1.1-2-2.9-3.7-5.2-4.8c-1.5-0.6-3-0.9-4.5-0.9
	c-1.4,0-2.7,0.3-4,0.7c-2.6,1-4.9,3-6.1,5.8c-1,2.4-1.2,4.9-0.6,7.2C20.2,30.8,20.2,31,20.3,31.2z M22,24c1.1-2.4,3-4.2,5.4-5.1
	c1.1-0.4,2.3-0.7,3.5-0.7c1.3,0,2.6,0.3,3.9,0.8c2.1,0.9,3.7,2.5,4.7,4.4c0.1,0.2,0.1,0.3,0.2,0.5c0.2,0.3,0.3,0.7,0.4,1.1
	c0.1,0.4,0.2,0.7,0.3,1.1c0.4,1.9,0.2,3.8-0.7,5.7c-1.1,2.4-3,4.2-5.4,5.1c-1.1,0.4-2.3,0.7-3.5,0.7c-1.3,0-2.6-0.3-3.9-0.8
	c-2.9-1.3-4.8-3.8-5.5-6.6c0-0.2-0.1-0.4-0.1-0.6c-0.2-1.2-0.2-2.5,0.1-3.8c0.1-0.4,0.2-0.8,0.3-1.1C21.8,24.4,21.9,24.2,22,24z"/>
<polygon fill="none" points="46.5,27.5 48,28.4 47.5,27.7 "/>
<polygon fill="#6FAEF5" points="52.3,28.9 56.8,28.2 56.8,27.7 52.3,28.4 47.8,27.3 48.2,27.9 "/>
<polygon fill="#6FAEF5" points="47,27.1 45.1,26.6 46.5,27.5 47.5,27.7 "/>
<path fill="#6FAEF5" d="M16.9,37l0,0.7l4.1-2.7c-0.1-0.1-0.2-0.3-0.3-0.4L16.9,37z"/>
<path fill="#6FAEF5" d="M44.5,27.1l-1.7,1.6c0,0.2,0,0.5-0.1,0.7l2.4-2.2L44.8,27L44.5,27.1z"/>
<polygon fill="#89DB6E" points="52.3,33.3 49.9,30.1 48.8,29.4 51.9,33.6 51.9,33.7 54,34.4 53.5,33.7 "/>
<path fill="#89DB6E" d="M16.9,28.6v0.5l1.9,0.2c0-0.2,0-0.3-0.1-0.5L16.9,28.6z"/>
<polygon fill="#89DB6E" points="56.8,35.4 56.9,34.9 54.3,34 54.8,34.7 "/>
<polygon fill="#89DB6E" points="48,28.4 49.1,29.1 48.2,27.9 47.5,27.7 "/>
<path fill="#89DB6E" d="M44.7,24l2.3,3.1l0.8,0.2L45,23.6l-0.1-0.1l-2.7,0.7c0.1,0.2,0.1,0.3,0.2,0.5L44.7,24z"/>
<polygon fill="#89DB6E" points="47.5,27.7 48.2,27.9 47.8,27.3 47,27.1 "/>
<polygon fill="#6FAEF5" points="46.5,27.5 45.1,26.6 45,26.6 44.5,27.1 44.8,27 45.1,27.2 45.2,27.2 "/>
<polygon fill="#89DB6E" points="54.3,34 53.5,33.7 54,34.4 54.8,34.7 "/>
<polygon fill="#89DB6E" points="49.1,29.1 48,28.4 48.8,29.4 49.9,30.1 "/>
<g>
	<polygon fill="#6FAEF5" points="56.3,29.8 55.8,29.6 56.8,27.8 55,27 55.2,26.6 57.5,27.6 	"/>
</g>
<g>
	<polygon fill="#89DB6E" points="55.4,36.3 55.2,35.8 56.7,35.1 55.9,33.5 56.4,33.3 57.4,35.3 	"/>
</g>
</svg>
