<?xml version="1.0" encoding="utf-8"?>
<!-- Generator: Adobe Illustrator 20.1.0, SVG Export Plug-In . SVG Version: 6.00 Build 0)  -->
<svg version="1.1" id="Layer_1" xmlns="http://www.w3.org/2000/svg" xmlns:xlink="http://www.w3.org/1999/xlink" x="0px" y="0px"
	 viewBox="0 0 9.2 13.9" enable-background="new 0 0 9.2 13.9" xml:space="preserve">
<g>
	<path fill="#C7CFDE" d="M5.7,1.5V0H3.6v1.5H0v12.4h9.2V1.5H5.7z M4,0.4h1.3v2H4V0.4z M8.8,13.5H0.4V1.9h3.1v0.9h2.1V1.9h3.1V13.5z"/>
	<path fill="#C7CFDE" d="M5.8,5.1c0-0.7-0.5-1.2-1.2-1.2c-0.7,0-1.2,0.5-1.2,1.2c0,0.4,0.2,0.8,0.5,1c-0.6,0.3-1,0.9-1,1.6v1.7h3.5V7.7
		c0-0.7-0.4-1.3-1-1.6C5.6,5.9,5.8,5.5,5.8,5.1z M4.6,4.3c0.4,0,0.8,0.4,0.8,0.8c0,0.4-0.4,0.8-0.8,0.8c-0.4,0-0.8-0.4-0.8-0.8
		C3.8,4.7,4.2,4.3,4.6,4.3z M5.9,7.7V9H3.3V7.7c0-0.7,0.6-1.3,1.3-1.3S5.9,7,5.9,7.7z"/>
	<rect x="1.9" y="10.9" width="5.5" height="0.4" fill="#C7CFDE"/>
	<rect x="1.9" y="11.9" width="5.5" height="0.4" fill="#C7CFDE"/>
</g>
</svg>
