<?xml version="1.0" encoding="utf-8"?>
<!-- Generator: Adobe Illustrator 20.1.0, SVG Export Plug-In . SVG Version: 6.00 Build 0)  -->
<svg version="1.1" id="Layer_1" xmlns="http://www.w3.org/2000/svg" xmlns:xlink="http://www.w3.org/1999/xlink" x="0px" y="0px"
	 viewBox="0 0 10 10" enable-background="new 0 0 10 10" xml:space="preserve">
<path fill="#D2D9E4" d="M8.6,1.5C7.8,0.7,6.7,0.3,5.6,0.3c-1.1,0-2.2,0.4-2.9,1.2C1.1,3,1.1,5.5,2.5,7.2L0.2,9.5
	c-0.1,0.1-0.1,0.3,0,0.4c0,0,0.1,0.1,0.2,0.1s0.1,0,0.2-0.1l2.3-2.3c0.8,0.7,1.8,1.1,2.7,1.1c1.1,0,2.1-0.4,2.9-1.2
	C10.2,5.7,10.2,3.1,8.6,1.5z M8.2,7C6.8,8.4,4.5,8.4,3,7C1.6,5.6,1.6,3.3,3,1.8c0.7-0.7,1.6-1.1,2.6-1.1c1,0,1.9,0.4,2.6,1.1
	C9.6,3.3,9.6,5.6,8.2,7z"/>
</svg>
