<?xml version="1.0" encoding="utf-8"?>
<!-- Generator: Adobe Illustrator 19.1.0, SVG Export Plug-In . SVG Version: 6.00 Build 0)  -->
<svg version="1.1" id="Layer_1" xmlns="http://www.w3.org/2000/svg" xmlns:xlink="http://www.w3.org/1999/xlink" x="0px" y="0px"
	 viewBox="-91 49.217 56.693 56.693" enable-background="new -91 49.217 56.693 56.693" xml:space="preserve">
<g>
	<rect x="-71.7079" y="71.981" transform="matrix(0.8613 0.508 -0.508 0.8613 29.0038 41.8064)" width="19.2464" height="4.1104"/>
	
		<rect x="-74.6274" y="79.2883" transform="matrix(0.9657 0.2596 -0.2596 0.9657 18.8887 19.6645)" width="19.2462" height="4.1107"/>
	<rect x="-75.8359" y="86.3297" transform="matrix(0.9958 0.0917 -0.0917 0.9958 7.83 6.4478)" width="19.246" height="4.111"/>
	<rect x="-76.1525" y="92.4966" width="19.2466" height="4.111"/>
	<path d="M-53.6363,99.8858h-25.2446v-16.805h-3.2878v20.0301h0.0327c0,0.0156,0.9598,0.0156,0.9598,0.0156h30.7952v-0.0156
		c0.0324,0,0.0324-0.9601,0.0324-0.9601V83.0808h-3.2877V99.8858z"/>
	
		<rect x="-65.4299" y="65.428" transform="matrix(-0.5634 -0.8262 0.8262 -0.5634 -143.0016 59.4012)" width="19.247" height="4.1099"/>
	
		<rect x="-49.6262" y="54.5705" transform="matrix(0.9853 -0.171 0.171 0.9853 -11.6767 -7.1886)" width="4.1108" height="19.2461"/>
</g>
</svg>
