<?xml version="1.0" encoding="utf-8"?>
<!-- Generator: Adobe Illustrator 16.0.4, SVG Export Plug-In . SVG Version: 6.00 Build 0)  -->
<!DOCTYPE svg PUBLIC "-//W3C//DTD SVG 1.1//EN" "http://www.w3.org/Graphics/SVG/1.1/DTD/svg11.dtd">
<svg version="1.1" id="Layer_1" xmlns="http://www.w3.org/2000/svg" xmlns:xlink="http://www.w3.org/1999/xlink" x="0px" y="0px"
	 width="56.693px" height="56.693px" viewBox="0 0 56.693 56.693" enable-background="new 0 0 56.693 56.693" xml:space="preserve">
<path d="M28.348,5.155c-13.6,0-24.625,11.025-24.625,24.625c0,13.602,11.025,24.625,24.625,24.625
	c13.6,0,24.623-11.023,24.623-24.625C52.971,16.18,41.947,5.155,28.348,5.155z M42.611,23.716
	c-1.645,9.268-10.834,17.113-13.598,18.906c-2.766,1.789-5.287-0.721-6.201-2.617c-1.047-2.164-4.185-13.896-5.006-14.869
	c-0.822-0.973-3.287,0.973-3.287,0.973l-1.195-1.57c0,0,5.006-5.977,8.815-6.727c4.039-0.789,4.033,6.204,5.006,10.088
	c0.939,3.758,1.57,5.904,2.391,5.904c0.822,0,2.391-2.092,4.109-5.305c1.721-3.215-0.074-6.055-3.438-4.035
	C31.553,16.395,44.256,14.454,42.611,23.716z"/>
</svg>
