<?xml version="1.0" encoding="utf-8"?>
<!-- Generator: Adobe Illustrator 20.1.0, SVG Export Plug-In . SVG Version: 6.00 Build 0)  -->
<svg version="1.1" id="Layer_1" xmlns="http://www.w3.org/2000/svg" xmlns:xlink="http://www.w3.org/1999/xlink" x="0px" y="0px"
	 viewBox="0 0 110.8 37.3" enable-background="new 0 0 110.8 37.3" xml:space="preserve">
<g>
	<path fill="#7886A2" d="M81.5,30.5c0-5.5,4.5-10.1,10.1-10.1h9.2c5.5,0,10.1,4.5,10.1,10.1v6.7H81.5V30.5z M109.8,30.5
		c0-5-4.1-9.1-9.1-9.1h-9.2c-5,0-9.1,4.1-9.1,9.1v5.7h27.4V30.5z"/>
</g>
<g>
	<path fill="#7886A2" d="M88.3,13.6c0-4.3,3.5-7.8,7.8-7.8c4.3,0,7.8,3.5,7.8,7.8s-3.5,7.8-7.8,7.8C91.8,21.4,88.3,17.9,88.3,13.6z
		 M89.3,13.6c0,3.8,3.1,6.8,6.8,6.8s6.8-3.1,6.8-6.8s-3.1-6.8-6.8-6.8S89.3,9.9,89.3,13.6z"/>
</g>
<g>
	<path fill="#7886A2" d="M0,30.5c0-5.5,4.5-10.1,10.1-10.1h9.2c5.5,0,10.1,4.5,10.1,10.1v6.7H0L0,30.5z M28.4,30.5
		c0-5-4.1-9.1-9.1-9.1h-9.2c-5,0-9.1,4.1-9.1,9.1v5.7h27.4V30.5z"/>
</g>
<g>
	<path fill="#7886A2" d="M6.9,13.6c0-4.3,3.5-7.8,7.8-7.8c4.3,0,7.8,3.5,7.8,7.8s-3.5,7.8-7.8,7.8C10.4,21.4,6.9,17.9,6.9,13.6z
		 M7.9,13.6c0,3.8,3.1,6.8,6.8,6.8s6.8-3.1,6.8-6.8s-3.1-6.8-6.8-6.8S7.9,9.9,7.9,13.6z"/>
</g>
<g>
	<g>
		<path fill="#F4B971" d="M44.9,16.8c0.1,0,0.2-0.1,0.2-0.2v-2c0-0.1-0.1-0.2-0.2-0.2s-0.2,0.1-0.2,0.2v2
			C44.6,16.7,44.7,16.8,44.9,16.8z"/>
	</g>
	<g>
		<path fill="#FFD576" d="M46.5,17c0.1,0,0.2-0.1,0.2-0.2l0.3-1.2c0-0.1,0-0.3-0.2-0.3c-0.1,0-0.3,0-0.3,0.2l-0.3,1.2
			C46.2,16.8,46.3,17,46.5,17C46.4,17,46.4,17,46.5,17z"/>
	</g>
	<g>
		<path fill="#F4B971" d="M47.9,17.6c0.1,0,0.2,0,0.2-0.1l1-1.7c0.1-0.1,0-0.3-0.1-0.3c-0.1-0.1-0.3,0-0.3,0.1l-1,1.7
			c-0.1,0.1,0,0.3,0.1,0.3C47.8,17.6,47.9,17.6,47.9,17.6z"/>
	</g>
	<g>
		<path fill="#FFD576" d="M49.2,18.6c0.1,0,0.1,0,0.2-0.1l0.9-0.9c0.1-0.1,0.1-0.3,0-0.4c-0.1-0.1-0.3-0.1-0.4,0L49,18.1
			c-0.1,0.1-0.1,0.3,0,0.4C49.1,18.5,49.1,18.6,49.2,18.6z"/>
	</g>
	<g>
		<path fill="#F4B971" d="M50.2,19.8c0,0,0.1,0,0.1,0l1.7-1c0.1-0.1,0.2-0.2,0.1-0.3c-0.1-0.1-0.2-0.2-0.3-0.1l-1.7,1
			c-0.1,0.1-0.2,0.2-0.1,0.3C50,19.8,50.1,19.8,50.2,19.8z"/>
	</g>
	<g>
		<path fill="#FFD576" d="M50.8,21.3C50.8,21.3,50.8,21.3,50.8,21.3l1.3-0.3c0.1,0,0.2-0.2,0.2-0.3c0-0.1-0.2-0.2-0.3-0.2l-1.2,0.3
			c-0.1,0-0.2,0.2-0.2,0.3C50.6,21.2,50.7,21.3,50.8,21.3z"/>
	</g>
	<g>
		<path fill="#F4B971" d="M51,22.8h2c0.1,0,0.2-0.1,0.2-0.2s-0.1-0.2-0.2-0.2h-2c-0.1,0-0.2,0.1-0.2,0.2S50.9,22.8,51,22.8z"/>
	</g>
	<g>
		<path fill="#FFD576" d="M51.9,24.7c0.1,0,0.2-0.1,0.2-0.2c0-0.1,0-0.3-0.2-0.3l-1.1-0.3c-0.1,0-0.3,0-0.3,0.2c0,0.1,0,0.3,0.2,0.3
			L51.9,24.7C51.9,24.7,51.9,24.7,51.9,24.7z"/>
	</g>
	<g>
		<path fill="#F4B971" d="M36.8,22.9h2c0.1,0,0.2-0.1,0.2-0.2s-0.1-0.2-0.2-0.2h-2c-0.1,0-0.2,0.1-0.2,0.2S36.7,22.9,36.8,22.9z"/>
	</g>
	<g>
		<path fill="#FFD576" d="M37.8,24.8C37.8,24.8,37.9,24.8,37.8,24.8l1.3-0.3c0.1,0,0.2-0.2,0.2-0.3c0-0.1-0.2-0.2-0.3-0.2l-1.2,0.3
			c-0.1,0-0.2,0.2-0.2,0.3C37.6,24.7,37.7,24.8,37.8,24.8z"/>
	</g>
	<g>
		<path fill="#F4B971" d="M39.6,19.9c0.1,0,0.2,0,0.2-0.1c0.1-0.1,0-0.3-0.1-0.3l-1.7-1c-0.1-0.1-0.3,0-0.3,0.1
			c-0.1,0.1,0,0.3,0.1,0.3l1.7,1C39.5,19.9,39.6,19.9,39.6,19.9z"/>
	</g>
	<g>
		<path fill="#FFD576" d="M39,21.3c0.1,0,0.2-0.1,0.2-0.2c0-0.1,0-0.3-0.2-0.3L38,20.6c-0.1,0-0.3,0-0.3,0.2c0,0.1,0,0.3,0.2,0.3
			L39,21.3C39,21.3,39,21.3,39,21.3z"/>
	</g>
	<g>
		<path fill="#FFD576" d="M40.6,18.6c0.1,0,0.1,0,0.2-0.1c0.1-0.1,0.1-0.3,0-0.4l-0.8-0.8c-0.1-0.1-0.3-0.1-0.4,0s-0.1,0.3,0,0.4
			l0.8,0.8C40.5,18.6,40.5,18.6,40.6,18.6z"/>
	</g>
	<g>
		<path fill="#F4B971" d="M41.8,17.6c0,0,0.1,0,0.1,0c0.1-0.1,0.2-0.2,0.1-0.3l-1-1.7c-0.1-0.1-0.2-0.2-0.3-0.1
			c-0.1,0.1-0.2,0.2-0.1,0.3l1,1.7C41.7,17.6,41.8,17.6,41.8,17.6z"/>
	</g>
	<g>
		<path fill="#FFD576" d="M43.3,17C43.3,17,43.3,17,43.3,17c0.2,0,0.3-0.2,0.2-0.3l-0.3-1.2c0-0.1-0.2-0.2-0.3-0.2
			c-0.1,0-0.2,0.2-0.2,0.3l0.3,1.2C43.1,16.9,43.2,17,43.3,17z"/>
	</g>
</g>
<g>
	<path fill="#6FAEF5" d="M42.6,27c0-0.3-0.2-0.7-0.4-0.9c-0.8-0.8-1.3-1.8-1.3-3c0-1.2,0.5-2.3,1.4-3.1c0.9-0.8,2.1-1.1,3.3-0.8
		c1.6,0.3,2.8,1.6,3.1,3.2c0.2,1.4-0.2,2.7-1.3,3.7c-0.2,0.2-0.4,0.6-0.4,0.9c0,0.1-0.1,0.2-0.2,0.2h-3.9
		C42.7,27.3,42.6,27.2,42.6,27z M47.2,25.8c0.9-0.8,1.3-2,1.1-3.2c-0.2-1.4-1.3-2.5-2.7-2.8c-1-0.2-2.1,0.1-2.9,0.7
		c-0.8,0.7-1.3,1.6-1.3,2.7c0,1,0.4,1.9,1.2,2.6c0.3,0.2,0.5,0.6,0.6,1l3.5,0C46.7,26.5,46.9,26.1,47.2,25.8z"/>
</g>
<g>
	<path fill="#F272A6" d="M57.5,14.4c0-4,3.3-7.3,7.3-7.3H65v7.5h-7.5V14.4z M64.5,7.6c-3.5,0.1-6.4,3-6.5,6.5h6.5V7.6z"/>
</g>
<g>
	<path fill="#7886A2" d="M57.4,29.3c7.3,3.5,16.2,0.4,19.7-6.9c0.9-1.9,1.4-3.9,1.4-5.9c0-0.1,0.1-0.3,0.2-0.4l3.2-2.5l-3.5-1
		c-0.2,0-0.3-0.2-0.3-0.4c-1.1-4.2-4-7.7-7.9-9.6C63-0.8,54.4,2.2,50.7,9.2c-0.3-0.1-0.6-0.3-0.9-0.4c3.9-7.6,13.1-10.8,20.8-7.1
		c4.1,2,7.1,5.6,8.3,9.9l4.2,1.2c0.2,0.1,0.3,0.2,0.4,0.4c0,0.2,0,0.4-0.2,0.5l-3.8,2.9c-0.1,2.1-0.6,4.2-1.5,6.1
		c-2.7,5.6-8.4,8.9-14.2,8.9c-2.3,0-4.6-0.5-6.8-1.5c-0.1,0-0.2-0.1-0.3-0.1c0.2-0.3,0.4-0.6,0.5-0.8C57.3,29.2,57.4,29.2,57.4,29.3
		z"/>
	<path fill="#7886A2" d="M53.4,10.6h7.8v0.5h-7.4c-0.1-0.1-0.3-0.2-0.4-0.3V10.6z"/>
	<path fill="#7886A2" d="M29.6,16.9l2.6,2.4c-0.8,3.7,0,7.5,2.2,10.5C37,33.4,41,35.3,45,35.3c2.7,0,5.4-0.8,7.7-2.5
		c1.2-0.9,2.2-2,3.1-3.2c0.2-0.3,0.4-0.6,0.5-0.8c0.8-1.4,1.4-2.9,1.6-4.6c0.2-1.3,0.2-2.6,0-3.9c0-0.2-0.1-0.3-0.1-0.5
		c-0.4-1.9-1.1-3.7-2.3-5.3c-1.4-1.9-3.2-3.4-5.3-4.3C50,10,49.7,9.9,49.4,9.7c-0.7-0.3-1.5-0.5-2.3-0.6c-3.5-0.5-6.9,0.3-9.8,2.4
		c-1.4,1-2.6,2.3-3.5,3.8L29.9,16c-0.2,0-0.3,0.2-0.4,0.3C29.4,16.6,29.5,16.7,29.6,16.9z M31,16.8l3.1-0.5c0.1,0,0.3-0.1,0.4-0.2
		c0.8-1.5,2-2.7,3.4-3.7C40,10.8,42.4,10,45,10c0.6,0,1.3,0,1.9,0.1c0.7,0.1,1.4,0.3,2.1,0.5c0.3,0.1,0.6,0.2,0.9,0.4
		c1.9,0.8,3.6,2.2,4.9,3.9c1.9,2.6,2.7,5.8,2.2,9c-0.2,1.5-0.7,2.9-1.5,4.2c-0.2,0.3-0.3,0.6-0.5,0.8c-0.8,1.1-1.7,2.1-2.8,2.9
		c-5.4,3.9-13,2.8-16.9-2.6c-2.1-2.9-2.8-6.5-2-10c0-0.2,0-0.4-0.1-0.5L31,16.8z"/>
</g>
<g>
	<rect x="52.4" y="8.7" fill="#6FAEF5" width="4.1" height="1"/>
</g>
<g>
	<g>
		<path fill="#89DB6E" d="M66.5,16V9h0.2c4,0,7.3,3.3,7.3,7.3c0,0.9-0.2,1.7-0.4,2.5c-0.1-0.1-0.3-0.2-0.4-0.3
			c0.2-0.7,0.3-1.4,0.3-2.1c0-3.7-2.9-6.7-6.5-6.8v7h-7c0.1,3.1,2.4,5.7,5.3,6.4c0,0.2,0,0.4,0.1,0.5c-3.4-0.6-5.9-3.6-5.9-7.2V16
			H66.5z"/>
	</g>
	<path fill="#AF73EF" d="M66.2,22.3c0-2.2,1.8-3.9,3.9-3.9s3.9,1.8,3.9,3.9s-1.8,3.9-3.9,3.9S66.2,24.4,66.2,22.3z M66.7,22.3
		c0,1.9,1.5,3.4,3.4,3.4s3.4-1.5,3.4-3.4s-1.5-3.4-3.4-3.4S66.7,20.4,66.7,22.3z"/>
</g>
<g>
	<g>
		<path fill="#AF73EF" d="M70.1,23.3C70,23.3,70,23.2,70.1,23.3l-0.1-0.8c0-0.1,0-0.1,0.1-0.1c0.6,0,1-0.3,1-0.9v0
			c0-0.5-0.4-0.8-0.9-0.8c-0.4,0-0.7,0.2-1,0.5c0,0-0.1,0.1-0.1,0.1c-0.1,0-0.1,0-0.1-0.1c0,0,0-0.1,0-0.1c0.3-0.3,0.7-0.6,1.2-0.6
			c0.7,0,1.2,0.5,1.2,1.1v0c0,0.7-0.5,1-1.2,1.1L70.1,23.3C70.2,23.2,70.1,23.3,70.1,23.3L70.1,23.3z M70.1,23.8
			c0.1,0,0.2,0.1,0.2,0.2v0c0,0.1-0.1,0.2-0.2,0.2s-0.2-0.1-0.2-0.2v0C69.9,23.8,70,23.8,70.1,23.8z"/>
	</g>
</g>
<g>
	<path fill="#F4B971" d="M45,25.1l-1.3-2c0,0,0-0.1,0-0.1c0,0,0.1-0.1,0.1-0.1h0.6v-1.4c0-0.1,0-0.1,0.1-0.1c0.1,0,0.1,0,0.1,0.1
		l1.3,2c0,0,0,0.1,0,0.1c0,0-0.1,0.1-0.1,0.1h-0.6V25c0,0.1,0,0.1-0.1,0.1c0,0,0,0,0,0C45.1,25.1,45,25.1,45,25.1z M44.7,21.9V23
		c0,0.1-0.1,0.1-0.1,0.1H44l0.9,1.5v-1.1c0-0.1,0.1-0.1,0.1-0.1h0.5L44.7,21.9z"/>
</g>
<path fill="#7886A2" d="M64.1,19.7v0.5H59c0-0.2-0.1-0.3-0.1-0.5H64.1z"/>
<g>
	<path fill="#7886A2" d="M42.6,27.9v-1H47v1c0,0.6-0.5,1.1-1.1,1.1h-2.3C43.1,29,42.6,28.5,42.6,27.9z M43.1,27.3v0.6
		c0,0.3,0.3,0.6,0.6,0.6H46c0.3,0,0.6-0.3,0.6-0.6v-0.6H43.1z"/>
</g>
</svg>
