<?xml version="1.0" encoding="utf-8"?>
<!-- Generator: Adobe Illustrator 20.1.0, SVG Export Plug-In . SVG Version: 6.00 Build 0)  -->
<svg version="1.1" id="Layer_1" xmlns="http://www.w3.org/2000/svg" xmlns:xlink="http://www.w3.org/1999/xlink" x="0px" y="0px"
	 viewBox="0 0 77 63.8" enable-background="new 0 0 77 63.8" xml:space="preserve">
<g>
	<g>
		
			<rect x="62.1" y="30.8" transform="matrix(0.1877 -0.9822 0.9822 0.1877 18.6102 88.093)" fill="#7886A2" width="1" height="4.1"/>
	</g>
	<g>
		<path fill="#F272A6" d="M54.8,9.3l-0.2,0l-1.4,7.4l7.4,1.4l0-0.2c0.2-1.2,0.1-2.3-0.2-3.4l5.4,1L66,15l-5.7-1.1
			C59.4,11.6,57.4,9.8,54.8,9.3z M60.1,17.5l-6.4-1.2l1.2-6.4c2.2,0.5,3.9,2,4.7,4l-2.1-0.4l-0.1,0.5l2.4,0.5
			C60.2,15.3,60.3,16.4,60.1,17.5z"/>
	</g>
	<g>
		
			<rect x="62.9" y="20.3" transform="matrix(0.1877 -0.9822 0.9822 0.1877 29.5224 80.4041)" fill="#6FAEF5" width="1" height="4.1"/>
	</g>
	<g>
		
			<rect x="64.6" y="11.1" transform="matrix(0.1877 -0.9822 0.9822 0.1877 40.0161 74.6408)" fill="#6FAEF5" width="1" height="4.1"/>
	</g>
	<g>
		<path fill="#F4B971" d="M36.2,29l-0.1-0.6l-2.2-12.6l-1.8,0.3l2.3,13.3l1.6-0.3L36.2,29z M34.8,28.8l-2.1-12.3l0.8-0.1l2.1,12.3
			L34.8,28.8z"/>
	</g>
	<g>
		<path fill="#F272A6" d="M38.9,19.5l-1.1,0.2l-0.7,0.1l0.3,1.8l0.5,2.8l0.7,4.2l1.8-0.3L38.9,19.5L38.9,19.5z M39.1,28l-0.9-5
			l-0.5-2.8l0,0l0,0l0.8-0.1l0.1,0.6l1.3,7.2L39.1,28z"/>
	</g>
	<g>
		<path fill="#AF73EF" d="M44.7,27.7l-2.9-16.6l-1.4,0.2L40,11.4l0.2,1L42.9,28L44.7,27.7z M41.4,11.7l2.7,15.6l-0.8,0.1l-2.7-15.6
			L41.4,11.7z"/>
	</g>
	<g>
		<path fill="#89DB6E" d="M24.1,19.8l1.9,11l1.8-0.3l-1.9-11L24.1,19.8z M26.4,30.2l-1.7-10l0.8-0.1l1.7,10L26.4,30.2z"/>
	</g>
	<g>
		<path fill="#6FAEF5" d="M32,29.9l-2.7-15.4l-1.8,0.3l2.7,15.4L32,29.9z M29,15.1l2.5,14.4l-0.8,0.1l-2.5-14.4L29,15.1z"/>
	</g>
	<g>
		<polygon fill="#7886A2" points="20.4,13.6 23.8,33.2 35.6,31.1 36.7,30.9 43.7,29.7 46.5,29.2 47.6,29 47.6,28.5 45.1,29 
			42.3,29.4 36.8,30.4 35.7,30.6 24.2,32.6 20.9,13.5 		"/>
	</g>
	<g>
		<path fill="#7886A2" d="M42.1,33.7l-6.2,1.1L34.9,35l-10.2,1.8l0.2,0.9c0,0,0,0,0,0.1l9.8-1.7l1.1-0.2l6.5-1.1L42.1,33.7z"/>
	</g>
	<g>
		<polygon fill="#7886A2" points="44.3,33.3 44.3,33.4 44.4,34.3 46.9,33.9 48.2,33.7 48.4,33.6 48.3,32.6 45.5,33.1 		"/>
	</g>
	<g>
		<path fill="#7886A2" d="M34.1,39.2l-7.6,1.3c0.4,0.1,0.8,0.2,1.2,0.3l6.3-1.1l1.1-0.2l5.6-1l-0.1-0.5L35.1,39L34.1,39.2z"/>
	</g>
	<g>
		<path fill="#7886A2" d="M34.3,43.5L47,41.2l0.3,0l2.4-0.4l-0.1-0.5l-4,0.7l-1.1,0.2l-10.1,1.8l-1.1,0.2l-3,0.5
			c0.1,0.2,0.1,0.3,0.1,0.5l2.7-0.5L34.3,43.5z"/>
	</g>
	<g>
		<polygon fill="#7886A2" points="33.4,47 32.6,47.2 30.7,47.5 30.7,48 32.5,47.7 33.5,47.5 		"/>
	</g>
	<g>
		<polygon fill="#7886A2" points="47.4,45.1 50.4,44.6 50.3,44.1 46,44.8 44.6,45.1 34.8,46.8 34.9,47.3 46,45.3 		"/>
	</g>
	<g>
		<polygon fill="#7886A2" points="30.7,51.9 40,50.3 41.5,50 41.4,49.5 41.4,49.5 41.4,49.5 38.6,50 30.7,51.4 		"/>
	</g>
	<g>
		<path fill="#7886A2" d="M41.5,0.2L40.4,6l-26.2,4.6l4,22.8c0.3,0,0.6-0.1,1-0.1l-3.8-21.9l24.9-4.3l1.1-0.2l6.9-1.2l0.9,5.2
			l0.1,0.5l2.3,13.3l0.1,0.5l0.9,5.2l0.2,1.1l0.6,3.2l0.1,0.5l0.6,3.4l0.1,0.5l0.6,3.5l0.1,0.5l1.6,9.2l0,0.1l-2.6,0.4l-23.1,4v1
			l25.8-4.5l10.4,2l9.3-48.6L41.5,0.2z M50.2,11.2c0.6-0.1,1.3-0.1,2,0l-1,5.4L50.2,11.2z M55.8,22.9c-0.9,0.9-2.1,1.5-3.3,1.7
			l-1.1-6.4l6.4,1.2c-0.3,1.1-0.8,2.2-1.5,3L55.8,22.9z M56.8,22.5c0.7-0.9,1.3-2,1.5-3.2l0-0.2l-6.9-1.3l1.3-6.9l-0.2,0
			c-0.8-0.2-1.6-0.2-2.4,0L49,4.5l-7.5,1.3l0.9-4.5l32.8,6.3l-8.9,46.6l-8.8-1.7l-1.6-9.2l6.7,1.3l0.1-0.5l-6.9-1.3l-0.6-3.5
			l8.1,1.6l0.1-0.5L55,38.7l-0.6-3.4l1.1,0.2l0.1-0.5l-1.2-0.2l-0.6-3.2l4.6,0.9l0.2-1l-5-1l-1-5.5c1.5-0.3,2.8-1,3.8-2.1L56.8,22.5
			z"/>
	</g>
	<g>
		<path fill="#7886A2" d="M8.6,56.1v-3.7c-0.3-0.4-0.6-0.7-1-1v5.6C8,56.9,8.3,56.5,8.6,56.1z"/>
	</g>
	<path fill="#7886A2" d="M19.9,54.8l0.2,1.5h-2.9l0.1-0.8l-0.5,0l-0.1,1.3h4l-0.4-4c0.4-0.2,1.3-1,1.3-2.4c0-1.8-1.5-2.8-2.9-2.8
		c-1.4,0-2.9,1-2.9,2.8c0,1.5,0.9,2.2,1.2,2.4l0,0.3l0.5,0.1l0.1-0.6l-0.2-0.1c0,0-1.1-0.5-1.1-2c0-1.5,1.2-2.3,2.4-2.3
		c1,0,2.4,0.7,2.4,2.3c0,1.5-1.2,2-1.2,2.1l-0.2,0.1l0.1,1.3"/>
	<g>
		<path fill="#F4B971" d="M11.1,53.8L11.1,53.8c0-0.2-0.1-0.4-0.1-0.6c0,0,0,0,0,0c0-0.2-0.1-0.4-0.2-0.5c0,0,0-0.1,0-0.1
			c-0.1-0.2-0.1-0.3-0.2-0.5c0,0,0-0.1-0.1-0.1c-0.1-0.1-0.1-0.3-0.2-0.4c0-0.1-0.1-0.1-0.1-0.2c-0.1-0.1-0.2-0.2-0.2-0.3
			c-0.1-0.1-0.1-0.1-0.2-0.2c-0.1-0.1-0.2-0.2-0.2-0.3c-0.1-0.1-0.2-0.2-0.3-0.2c-0.1-0.1-0.1-0.1-0.2-0.2c-0.2-0.1-0.3-0.3-0.5-0.4
			c-0.3-0.2-0.6-0.3-1-0.5c-0.6-0.2-1.2-0.3-1.8-0.3c-2.9,0-5.3,2.4-5.3,5.3s2.4,5.3,5.3,5.3c0.6,0,1.2-0.1,1.8-0.3
			c0.4-0.1,0.7-0.3,1-0.5c0.2-0.1,0.4-0.2,0.5-0.4c0.1-0.1,0.1-0.1,0.2-0.2c0.1-0.1,0.2-0.2,0.3-0.2c0.1-0.1,0.2-0.2,0.2-0.3
			c0.1-0.1,0.1-0.1,0.2-0.2c0.1-0.1,0.2-0.2,0.2-0.3c0-0.1,0.1-0.1,0.1-0.2c0.1-0.1,0.2-0.3,0.2-0.4c0,0,0-0.1,0.1-0.1
			c0.1-0.2,0.1-0.3,0.2-0.5c0,0,0-0.1,0-0.1c0.1-0.2,0.1-0.4,0.2-0.5c0,0,0,0,0,0c0-0.2,0.1-0.4,0.1-0.6l0,0h8.1v-1H11.1z M8.6,57.6
			c-0.3,0.3-0.6,0.5-1,0.6c-0.5,0.2-1.1,0.4-1.8,0.4c-2.4,0-4.3-2-4.3-4.3s2-4.3,4.3-4.3c0.6,0,1.2,0.1,1.8,0.4
			c0.4,0.2,0.7,0.4,1,0.6c0.9,0.8,1.6,2,1.6,3.3S9.5,56.8,8.6,57.6z"/>
	</g>
</g>
<g>
	<path fill="#7886A2" d="M22.6,42.1c-0.3,0-0.5-0.2-0.5-0.5v-3c0-1.8-1.5-3.2-3.2-3.2s-3.2,1.5-3.2,3.2c0,0.3-0.2,0.5-0.5,0.5
		s-0.5-0.2-0.5-0.5c0-2.3,1.9-4.2,4.2-4.2s4.2,1.9,4.2,4.2v3C23.1,41.9,22.9,42.1,22.6,42.1z"/>
</g>
<g>
	<path fill="#6FAEF5" d="M10.9,39.9c-0.1,0-0.1,0-0.2,0l-2-0.7c-0.3-0.1-0.4-0.4-0.3-0.6c0.1-0.3,0.4-0.4,0.6-0.3l2,0.7
		c0.3,0.1,0.4,0.4,0.3,0.6C11.4,39.8,11.2,39.9,10.9,39.9z"/>
</g>
<g>
	<path fill="#6FAEF5" d="M12.6,38.2c-0.2,0-0.4-0.2-0.5-0.4l-0.6-3c-0.1-0.3,0.1-0.5,0.4-0.6c0.3-0.1,0.5,0.1,0.6,0.4l0.6,3
		c0.1,0.3-0.1,0.5-0.4,0.6C12.7,38.2,12.7,38.2,12.6,38.2z"/>
</g>
<g>
	<path fill="#7886A2" d="M11.5,41.5c-2.2,0-3.9,1.8-3.9,3.9v2.8c0.3,0.1,0.7,0.2,1,0.4v-3.2c0-1.6,1.3-2.9,2.9-2.9h14.3
		c1.1,0,2.1,0.6,2.6,1.5c0.1,0.2,0.2,0.3,0.2,0.5c0.1,0.3,0.2,0.6,0.2,0.9v16.8c0,0.2-0.2,0.5-0.5,0.5H9c-0.2,0-0.5-0.2-0.5-0.5V60
		c-0.3,0.2-0.7,0.3-1,0.4v1.7c0,0.8,0.7,1.5,1.5,1.5h19.2c0.8,0,1.5-0.7,1.5-1.5V45.4c0-0.4-0.1-0.7-0.2-1.1c0-0.2-0.1-0.3-0.2-0.5
		c-0.6-1.4-2-2.4-3.6-2.4H11.5z"/>
</g>
<polygon fill="#89DB6E" points="56.4,23 62.2,24.1 62.3,23.6 56.8,22.5 56.2,22.4 53.1,21.8 53,22.3 55.8,22.9 "/>
</svg>
