<?xml version="1.0" encoding="utf-8"?>
<!-- Generator: Adobe Illustrator 19.2.1, SVG Export Plug-In . SVG Version: 6.00 Build 0)  -->
<svg version="1.1" id="Layer_1" xmlns="http://www.w3.org/2000/svg" xmlns:xlink="http://www.w3.org/1999/xlink" x="0px" y="0px"
	 viewBox="0 0 230 173.3" style="enable-background:new 0 0 230 173.3;" xml:space="preserve">
<style type="text/css">
	.st0{fill:#7886A2;}
	.st1{fill:#6FAEF5;}
</style>
<path class="st0" d="M81.6,95.7c0.1-0.2,0.2-0.5,0.4-0.8H38.6c-0.4,0.3-0.8,0.5-1.1,0.8L81.6,95.7C81.6,95.8,81.6,95.7,81.6,95.7z"
	/>
<path class="st0" d="M24.7,94.9c-0.2,0-0.4,0.2-0.4,0.4c0,0.2,0.2,0.4,0.4,0.4h10.2c0.3-0.3,0.6-0.6,1-0.8H24.7z"/>
<path class="st0" d="M62.1,118.4c-1.4,0.3-2.7,0.6-4.1,0.8h29.7c0.4-0.3,0.9-0.5,1.3-0.8H62.1z"/>
<path class="st0" d="M93.6,118.4c-0.4,0.3-0.9,0.5-1.3,0.8h7.1c0.4-0.3,0.9-0.5,1.3-0.8H93.6z"/>
<path class="st0" d="M34.7,118.4h-10c-0.2,0-0.4,0.2-0.4,0.4s0.2,0.4,0.4,0.4h13.4c-0.9-0.2-1.7-0.3-2.5-0.6
	C35.3,118.5,35,118.4,34.7,118.4z"/>
<path class="st0" d="M114.3,118.4l-3,0.8h30.6c-0.4-0.3-0.8-0.5-1.1-0.8H114.3z"/>
<path class="st0" d="M105.1,119.2l3-0.8H104c-0.5,0.3-0.9,0.5-1.4,0.8H105.1z"/>
<path class="st0" d="M51.8,118.4h-8.3C46.2,118.6,49,118.6,51.8,118.4z"/>
<path class="st0" d="M134,142.8L134,142.8l-25.8,0c-0.2,0-0.4,0.2-0.4,0.4c0,0.2,0.2,0.4,0.4,0.4h25.5
	C133.7,143.3,133.7,143,134,142.8z"/>
<path class="st0" d="M136.6,142.8l-1,0.8h0.6c0.2-0.3,0.5-0.5,0.7-0.8H136.6z"/>
<path class="st0" d="M138.4,143.6h5.1c0.5-0.3,1-0.6,1.5-0.8h-6C138.8,143.1,138.6,143.4,138.4,143.6z"/>
<path class="st0" d="M59.4,83.6H24.7v6.9h18c5.2-2.8,10.9-4.6,16.7-5.4V83.6z"/>
<path class="st0" d="M59.4,86.7c-4.5,0.6-8.9,1.9-13,3.7h13V86.7z"/>
<path class="st0" d="M59.4,143.5v-5.8c-3.6,2-7.2,3.9-10.9,5.8H59.4z"/>
<path class="st0" d="M24.7,136.6v6.9h19.5c4.3-2.4,8.6-4.7,12.9-6.9H24.7z"/>
<rect x="64.6" y="136.6" class="st0" width="18.7" height="6.9"/>
<rect x="88.5" y="136.6" class="st0" width="12.6" height="6.9"/>
<path class="st1" d="M72.1,128.8c-3.4,1.8-6.8,3.5-10.1,5.3c-1.6,0.8-3.3,1.7-4.9,2.6h2.3v1.2c4.5-2.5,9.1-5,13.5-7.6
	c6.6-3.5,13.1-7.1,19.5-11h-4.5C82.6,122.5,77.4,125.7,72.1,128.8z"/>
<path class="st1" d="M58.1,119.2h-20C44.2,120.4,50.8,120.4,58.1,119.2z"/>
<path class="st1" d="M129.8,114.1c1.3-0.4,2.8-0.8,4.1-0.5c1.3,0.3,2.5,1.3,3.6,2.2l0.2,0.2c1,0.8,2,1.6,3,2.3h2.8
	c-1.6-1.1-3.3-2.3-4.8-3.6l-0.2-0.2c-1.3-1.1-2.6-2.2-4.3-2.5c-1.7-0.4-3.5,0.1-4.9,0.5l-21.3,5.8h6.2L129.8,114.1z"/>
<path class="st1" d="M100.4,120.5c0.7-0.4,1.5-0.9,2.2-1.3h-3.2c-1.4,0.9-2.8,1.8-4.2,2.8c-0.3,0.2-0.4,0.7-0.3,1
	c0.2,0.4,0.6,0.5,1,0.4l15.4-4.2h-6.2L100.4,120.5z"/>
<path class="st1" d="M65.6,86.3c4,0,8.1,0.5,12,1.6c1.7,0.5,3.3,1.1,4.2,2.4c1,1.4,0.8,3.2,0.2,4.7h0.9c0.2,0,0.4,0.2,0.4,0.4
	c0,0.2-0.2,0.4-0.4,0.4h-1.3c-0.7,1.2-1.7,2.2-2.8,3.1c-7.8,0.7-16.6,3.3-21.4,7.3c-2.1,1.8-3.3,3.8-3.5,5.9c0,0.2,0,0.3,0.1,0.5
	c-1.4,0.5-2.8,1.1-4.3,1.6c-0.4,0.1-0.7,0.6-0.5,1c0.1,0.4,0.6,0.6,1,0.5c2.2-0.8,4.4-1.6,6.6-2.5c7,0.5,14.1-1,22.3-3.4
	c1.2-0.4,2.5-0.7,3.7-1.1c-4.2,2.8-8.9,4.5-12.8,5.8c-6.6,2.2-12.7,3.5-18.3,3.9h10.3c2.8-0.6,5.6-1.4,8.5-2.4
	c5.2-1.7,11.7-4.2,16.8-8.8c10.4-3.3,20.6-7.1,30.6-10.9c-0.1,0.3-0.4,0.7-0.7,1.1c-2.2,2.3-4.6,4.5-7,6.7
	c-6.9,4.9-14,9.7-21.2,14.3h4.5c6.2-3.9,12.2-8.2,17.7-13c4.8-3.4,9.5-6.9,14.2-10.4l2.3-1.7c7.3-5.6,14.9-11.4,23.5-15
	c0.4,1.3-0.2,2.9-1.5,5c-5.3,7.9-13.1,14.6-25.1,21.7c-3.5,2.1-7.2,4.1-10.8,6.1c-4.3,2.4-8.7,4.8-13,7.4h3.2
	c3.5-2.1,7.1-4.1,10.6-6c3.6-2,7.3-4,10.8-6.1C137.7,99,145.6,92.1,151,84c2-3,2.4-5.5,1.3-7.4c-0.2-0.3-0.6-0.5-1-0.3
	c-9.1,3.7-16.9,9.7-24.6,15.6l-2.3,1.7c-1.7,1.3-3.5,2.6-5.2,3.9c0.6-1,0.7-2,0.1-2.8c-0.2-0.3-0.6-0.4-0.9-0.3
	c-9.4,3.5-19,7.1-28.7,10.3c0.8-1.2,1-2.4,0.6-3.5c-0.6-1.5-2.1-2.3-4.6-2.5c-1.3-0.1-2.8-0.1-4.3-0.1c0.6-0.6,1.1-1.3,1.6-2.1
	c1.2-2,1.7-5,0.1-7.2c-1.2-1.7-3.3-2.5-5.1-3c-6.1-1.7-12.4-2.1-18.7-1.3v1.7C61.4,86.5,63.5,86.3,65.6,86.3z M56.6,111.4
	c-0.3,0-0.6-0.1-0.9-0.1c0.3-1.4,1.3-2.7,2.8-4c4-3.4,11-5.7,17.7-6.6C70.1,105,63.5,108.6,56.6,111.4z M85.6,100.3
	c1.8,0.2,2.9,0.7,3.3,1.5c0.4,1.2-0.7,2.5-1.5,3.3c-0.2,0.2-0.5,0.4-0.7,0.7c-2.6,0.8-5.3,1.6-7.9,2.4c-6.7,1.9-12.6,3.2-18.3,3.4
	c6.1-2.8,12-6.2,17.6-10.1c0.5-0.3,1-0.7,1.5-1.1C81.7,100.2,83.8,100.2,85.6,100.3z"/>
<path class="st1" d="M36.7,147.7c-0.4,0.2-0.5,0.7-0.3,1.1c0.1,0.3,0.4,0.4,0.7,0.4c0.1,0,0.2,0,0.4-0.1c3.7-1.8,7.4-3.7,11-5.6
	h-4.3C41.6,144.9,39.1,146.3,36.7,147.7z"/>
<path class="st1" d="M46.4,90.5h-3.7c-2.4,1.3-4.7,2.8-6.8,4.5h2.7C41.1,93.2,43.7,91.7,46.4,90.5z"/>
<path class="st1" d="M36,117c-1.9-0.5-4.1-1.3-5.5-2.8c-1.9-2-2.4-5.3-1.4-8.4c0.8-2.5,2.5-4.9,5.4-7.5c1-0.9,2-1.7,3-2.6h-2.6
	c-0.5,0.4-1.1,0.9-1.6,1.4c-1.9,1.8-4.6,4.6-5.8,8.2c-1.2,3.7-0.5,7.6,1.7,10c1.5,1.6,3.6,2.5,5.5,3h8.8
	C40.9,118.1,38.4,117.7,36,117z"/>
<path class="st1" d="M38.6,94.9h-2.7c-0.3,0.3-0.6,0.5-1,0.8h2.6C37.9,95.5,38.2,95.2,38.6,94.9z"/>
<path class="st1" d="M81.6,95.8h1.3c0.2,0,0.4-0.2,0.4-0.4c0-0.2-0.2-0.4-0.4-0.4H82C81.9,95.2,81.8,95.5,81.6,95.8
	C81.6,95.7,81.6,95.8,81.6,95.8z"/>
<polygon class="st1" points="108.1,118.4 105.1,119.2 111.3,119.2 114.3,118.4 "/>
<path class="st1" d="M143.7,118.4h-2.8c0.4,0.3,0.7,0.5,1.1,0.8h3C144.5,118.9,144.1,118.6,143.7,118.4z"/>
<path class="st1" d="M104,118.4h-3.2c-0.4,0.3-0.9,0.5-1.3,0.8h3.2C103,118.9,103.5,118.6,104,118.4z"/>
<path class="st1" d="M51.8,118.4c-2.9,0.2-5.7,0.2-8.3,0h-8.8c0.3,0.1,0.6,0.2,0.8,0.2c0.8,0.2,1.7,0.4,2.5,0.6h20
	c1.3-0.2,2.7-0.5,4.1-0.8H51.8z"/>
<path class="st1" d="M89.1,118.4c-0.4,0.3-0.9,0.5-1.3,0.8h4.5c0.4-0.3,0.9-0.5,1.3-0.8H89.1z"/>
<path class="st1" d="M59.4,86.7v-1.7c-5.8,0.8-11.5,2.6-16.7,5.4h3.7C50.5,88.6,54.9,87.4,59.4,86.7z"/>
<path class="st1" d="M57,136.6c-4.3,2.2-8.6,4.5-12.9,6.9h4.3c3.7-1.9,7.3-3.8,10.9-5.8v-1.2H57z"/>
<path class="st1" d="M133.8,144c0.3,0.3,0.8,0.4,1.1,0.1l0.6-0.5h-1.8C133.8,143.7,133.7,143.9,133.8,144z"/>
<path class="st1" d="M135.2,147.4c-0.1,0.1-0.2,0.1-0.3,0.1c1.1-1.3,2.3-2.6,3.5-3.9h-2.2c-1.1,1.3-2.3,2.6-3.4,3.9
	c-0.2,0.3-0.2,0.6-0.1,0.9c0.3,0.5,0.9,0.8,1.6,0.8c0.5,0,1-0.1,1.5-0.4c3.8-1.6,7.5-3.4,11.1-5.3h-3.5
	C140.8,145,138,146.2,135.2,147.4z"/>
<path class="st1" d="M145.1,142.8c-0.5,0.3-1,0.6-1.5,0.8h3.5c0.5-0.3,1-0.5,1.5-0.8H145.1z"/>
<path class="st1" d="M139.1,142.8h-2.2c-0.2,0.3-0.5,0.5-0.7,0.8h2.2C138.6,143.4,138.8,143.1,139.1,142.8z"/>
<path class="st1" d="M134,142.8L134,142.8c-0.3,0.2-0.3,0.5-0.2,0.8h1.8l1-0.8H134z"/>
<path class="st0" d="M163.3,29.1v29.2c0,0.9,0.7,1.6,1.6,1.6s1.6-0.7,1.6-1.6V29.1c0-3.2,2.2-5.9,5.3-6.7v-3.3
	C167,19.9,163.3,24.1,163.3,29.1z"/>
<path class="st0" d="M173.4,19c-0.6,0-1.1,0.1-1.6,0.2v3.3c0.5-0.1,1.1-0.2,1.6-0.2V19z"/>
<path class="st0" d="M175,20.6c0-0.9-0.7-1.6-1.6-1.6c0,0,0,0,0,0v3.3c0,0,0,0,0,0C174.3,22.2,175,21.5,175,20.6z"/>
<rect x="175" y="83.2" class="st0" width="13.8" height="0.8"/>
<rect x="175" y="69.5" class="st0" width="13.8" height="0.6"/>
<rect x="175" y="70.2" class="st0" width="13.8" height="0.2"/>
<polygon class="st0" points="7.6,158.6 7.6,71.2 168.5,71.2 168.5,69.5 5.9,69.5 5.9,160.2 174.4,160.2 173.6,158.6 "/>
<polygon class="st0" points="222.7,69.5 195.3,69.5 195.3,71.2 221,71.2 221,158.6 190.2,158.6 189.5,160.2 222.7,160.2 "/>
<polygon class="st0" points="219.4,72.8 219.4,157 190.9,157 190.2,158.6 221,158.6 221,71.2 195.3,71.2 195.3,72.8 "/>
<polygon class="st0" points="7.6,71.2 7.6,158.6 173.6,158.6 172.9,157 9.2,157 9.2,72.8 168.5,72.8 168.5,71.2 "/>
<path class="st0" d="M206,118.8c0-0.2-0.2-0.4-0.4-0.4h-10.3v0.8h10.3C205.8,119.2,206,119,206,118.8z"/>
<path class="st0" d="M144.9,119.2h23.6v-0.8h-24.9C144.1,118.6,144.5,118.9,144.9,119.2z"/>
<path class="st0" d="M205.6,143.6c0.2,0,0.4-0.2,0.4-0.4c0-0.2-0.2-0.4-0.4-0.4h-10.3v0.8H205.6z"/>
<path class="st0" d="M147,143.6h21.5v-0.8h-20C148,143.1,147.5,143.4,147,143.6z"/>
<path class="st1" d="M163.4,123.8c-1.4,0.7-2.9,1.3-4.4,1.4c-1.7,0.1-3.3-0.5-4.8-1.1c-3.3-1.3-6.4-3-9.3-4.9h-3
	c3.6,2.5,7.5,4.7,11.7,6.4c1.6,0.7,3.5,1.4,5.5,1.2c1.8-0.1,3.4-0.8,5-1.6l0.2-0.1c1.4-0.6,2.8-1.2,4.2-1.7v-1.8
	c-1.6,0.7-3.3,1.3-4.9,2.1L163.4,123.8z"/>
<path class="st1" d="M168,137c-0.1,0-0.2,0.1-0.3,0.1l-18.3-4.4c1.3-1.1,2.7-2.3,4-3.4l0.9-0.7c0.4-0.3,0.4-0.8,0.1-1.1
	c-0.3-0.4-0.8-0.4-1.1-0.1c-0.3,0.2-0.6,0.5-0.9,0.7l-5.2,4.1l-16.5-3.9c-0.4-0.1-0.8,0.1-0.9,0.4c-0.2,0.4-0.1,0.8,0.3,1
	c3.7,2.7,7.7,4.9,11.9,6.7l-8,6.4h2.6l1-0.8c-0.2,0.3-0.5,0.6-0.7,0.8h2.2c1.7-1.9,3.5-3.7,5.3-5.5c2.3,0.8,4.7,1.5,7.1,2
	c-2.1,1.2-4.3,2.3-6.5,3.4h3.5c1.2-0.6,2.5-1.3,3.7-1.9c0.2,0.4,0.4,0.7,0.8,0.9c0.7,0.4,1.6,0.4,2.4,0.3c2.3-0.3,4.6-0.8,6.8-1.4
	c2,0,4.4-0.3,6-1.7l0.2,0.1v-2C168.4,136.9,168.2,136.9,168,137z M143.4,135.3c-3-1.2-6-2.6-8.7-4.3l10.9,2.6L143.4,135.3z
	 M155.2,140.5c-0.5,0.1-1,0.1-1.4-0.1c-0.1-0.1-0.2-0.3-0.2-0.3c0.1-0.1,0.1-0.1,0.2-0.2c1,0.2,1.9,0.3,2.9,0.4
	C156.2,140.4,155.7,140.4,155.2,140.5z M162,139c-0.2,0-0.4,0-0.6,0c-5.3-0.2-10.6-1.2-15.7-2.9c0.7-0.7,1.5-1.4,2.2-2l17,4
	C164,138.4,163,138.7,162,139z"/>
<path class="st0" d="M181.9,7.4c-5.6,0-10.1,4.5-10.1,10.1v1.6c0.5-0.1,1.1-0.2,1.6-0.2c0,0,0,0,0,0c0.9,0,1.6,0.7,1.6,1.6v-3
	c0-3.8,3.1-6.9,6.9-6.9s6.9,3.1,6.9,6.9v52v1v0.6v0.2v1.4v10.4V84v31.7v1.6v1v0.8v22.9v0.7v0.8v0.2v2.1H175v-2.3v-0.8v-2.3v-1.7V121
	v-1.7v-0.1v-0.8V84v-0.8V72.8v-1.4v-0.2v-0.6v-1V20.6c0,0.9-0.7,1.6-1.6,1.6c0,0,0,0,0,0c-0.6,0-1.1,0.1-1.6,0.2v47.1v1.6v1.6v45.6
	v0.8v1.2v1.7v16v1.7v3.1v0.8v2.7c0,0.2,0,0.5,0.1,0.7l4.5,10l0.7,1.6l0.7,1.6l2.5,5.4c0.3,0.6,0.8,1,1.5,1c0.6,0,1.2-0.4,1.5-1
	l2.5-5.4l0.7-1.6l0.7-1.6l4.5-10c0.1-0.2,0.1-0.4,0.1-0.7v-1.7v-0.9v-0.7v-0.1v-23.6v-0.8v-1.6v-1.6V72.8v-1.6v-1.6v-52
	C192.1,12,187.5,7.4,181.9,7.4z M183.8,157l-0.7,1.6l-0.7,1.6l-0.4,0.8l-0.4-0.8l-0.7-1.6l-0.7-1.6l-4.7-10.3h13.1L183.8,157z"/>
</svg>
