<?xml version="1.0" encoding="utf-8"?>
<!-- Generator: Adobe Illustrator 19.2.1, SVG Export Plug-In . SVG Version: 6.00 Build 0)  -->
<svg version="1.1" id="Layer_1" xmlns="http://www.w3.org/2000/svg" xmlns:xlink="http://www.w3.org/1999/xlink" x="0px" y="0px"
	 viewBox="0 0 195 127" style="enable-background:new 0 0 195 127;" xml:space="preserve">
<style type="text/css">
	.st0{fill:#7886A2;}
	.st1{fill:#F272A6;}
	.st2{fill:#89DB6E;}
	.st3{fill:#F4B971;}
	.st4{fill:none;}
</style>
<polygon class="st0" points="136.2,83.5 136.2,86.4 137.6,87 137.8,87 137.8,84.1 137.2,83.9 "/>
<polygon class="st0" points="126.6,105.8 125.1,105.3 124.4,105 119.9,105 119.4,106.2 120.5,106.6 128.8,106.6 "/>
<polygon class="st0" points="136.2,69.4 136.2,76.4 136.7,80.4 136.2,80.2 136.2,81.8 136.9,82.1 137.8,82.4 137.8,69.2 137.6,69.2 
	"/>
<path class="st0" d="M126.2,105.3c0-0.1,0-0.2,0-0.2h-0.7L126.2,105.3z"/>
<path class="st0" d="M136.2,86.9V105h-9.5c0,0.1,0,0.2-0.1,0.4l3.4,1.2h7.8V87.4l-0.1-0.1L136.2,86.9z"/>
<polygon class="st0" points="108.5,105 108.5,106.6 117.6,106.6 118.2,105 "/>
<path class="st0" d="M124.6,38.7v-1.5h-10.4l1.4,1.6h12.2h8.7c1.3,0,2.3,1.1,2.3,2.3v13.2l-28.4,0v0.9h25.8v12.5l0.4,0l1.2-0.2V55.3
	h2.6V41.2c0-2.2-1.8-3.9-3.9-3.9h-7.2v1.5H124.6z"/>
<polygon class="st0" points="87.1,55.2 87.1,54.4 87.1,54.4 85.6,54.4 85.6,55.3 87.1,55.3 "/>
<rect x="87.5" y="105" class="st1" width="0.1" height="1.6"/>
<rect x="87.5" y="105" class="st0" width="1.4" height="1.6"/>
<rect x="109" y="54.4" class="st0" width="1.4" height="0.9"/>
<rect x="107" y="105" class="st0" width="1.5" height="1.6"/>
<polygon class="st0" points="126.9,37.3 126.2,37.3 126.1,37.3 124.6,37.3 124.6,38.7 129.2,38.7 129.2,37.3 127.8,37.3 127.7,37.3 
	127,37.3 "/>
<polygon class="st1" points="107.5,55.3 107.5,54.4 88.7,54.4 88.7,55.3 89,55.3 89,103.5 89.8,103.5 89.8,55.3 106.2,55.3 
	106.2,103.5 107,103.5 107,55.3 "/>
<path class="st1" d="M69.9,25.7c0-1.5,0.7-2.8,1.8-3.7c1.2-0.9,2.7-1.2,4.1-0.8l10.7,3.1c2.4,0.7,4.1,3,4.1,5.5v0.5
	c-2,0.2-3.9,1.1-5.2,2.7L83,35.8h1.1l1.9-2.3c1.2-1.4,2.8-2.2,4.6-2.4c0.2,0,0.5-0.1,0.7-0.1h0.1v6.2v0.4v0v0v0.4h0v0.4v0.4v9.4
	l-3.5-2.6l-0.4-0.3l-0.4-0.3l-1.5-1.1l-8.5-0.2l3-3.5h-1.1l-3.7,4.3l9.9,0.2l1.7,1.3v6.8h0.8v-6.2l4.3,3.1v-11v-0.4h11.6v0.4v11
	l4.3-3.1v6.2h0.8v-6.8l1.7-1.3l9.9-0.2l-3.7-4.3h-1.1l3,3.5l-8.5,0.2l-1.5,1.1l-0.4,0.3l-0.4,0.3l-3.5,2.6v-9.4v-0.4v-0.4h0v-0.4v0
	v0v-0.4v-6.2h0.1c0.2,0,0.5,0.1,0.7,0.1c1.8,0.2,3.4,1,4.6,2.4l1.9,2.3h1.1l-2.4-2.8c-1.3-1.5-3.2-2.5-5.2-2.7v-0.5
	c0-2.5,1.7-4.8,4.1-5.5l10.7-3.1c1.4-0.4,2.9-0.1,4.1,0.8c1.2,0.9,1.8,2.2,1.8,3.7v10.1h1.6V25.7c0-2-0.9-3.8-2.5-5
	c-1.6-1.2-3.6-1.6-5.5-1l-10.7,3.1c-2.3,0.7-4,2.4-4.8,4.5H91.7c-0.8-2.1-2.6-3.9-4.8-4.5l-10.7-3.1c-1.9-0.5-3.9-0.2-5.5,1
	c-1.6,1.2-2.5,3-2.5,5v10.1h1.6V25.7z M92.2,29.8v-0.9h11.6v0.9v0.5h0v7v0.4H92.2v-0.4v-7h0V29.8z"/>
<rect x="90.9" y="105" class="st1" width="14.6" height="1.6"/>
<rect x="90.5" y="105" class="st1" width="0.4" height="1.6"/>
<polygon class="st1" points="69.1,37.3 69.2,37.3 69.9,37.3 69.9,35.8 68.3,35.8 68.3,37.3 68.4,37.3 "/>
<polygon class="st1" points="81.8,37.3 81.2,38.1 80.5,38.9 80.4,38.9 79.1,40.3 80.2,40.3 81.5,38.9 82.1,38.1 82.8,37.3 
	84.1,35.8 83,35.8 81.8,37.3 "/>
<polygon class="st1" points="87.1,54.4 87.2,54.4 87.2,54.4 87.2,55.3 87.1,55.3 87.1,55.3 88.7,55.3 88.7,54.4 87.9,54.4 
	87.9,53.6 87.9,52.9 87.1,52.9 87.1,53.6 "/>
<polygon class="st1" points="89.8,103.5 89,103.5 89,105 89,105 89.4,105 89.4,105.8 89,105.8 89,106.6 89,106.6 89,106.6 
	90.5,106.6 90.5,105 89.8,105 "/>
<rect x="89" y="105" class="st1" width="0.4" height="0.8"/>
<polygon class="st1" points="87.2,54.4 87.2,54.4 87.1,54.4 87.1,54.4 87.1,55.2 87.1,55.3 87.2,55.3 "/>
<polygon class="st1" points="81.2,38.1 81.8,37.3 81.8,37.3 81.1,38.1 80.4,38.9 80.5,38.9 "/>
<polygon class="st1" points="89,105.8 89,105 89,105 89,106.6 89,106.6 "/>
<polygon class="st1" points="114.9,38.1 114.2,37.3 113,35.8 111.9,35.8 113.2,37.3 113.9,38.1 114.6,38.9 115.8,40.3 116.9,40.3 
	115.6,38.9 "/>
<polygon class="st1" points="126.1,37.3 126.2,37.3 126.9,37.3 127,37.3 127.7,37.3 127.7,35.8 126.1,35.8 "/>
<polygon class="st1" points="107,105.8 107,105 107,105 107,103.5 106.2,103.5 106.2,105 105.5,105 105.5,106.6 107,106.6 
	107,106.6 107,106.6 "/>
<polygon class="st1" points="108.1,54.4 107.5,54.4 107.5,55.3 108.9,55.3 108.9,55.2 108.9,54.4 108.9,54.4 108.9,52.9 108.1,52.9 
	108.1,53.6 "/>
<polygon class="st1" points="107,105 107,105.8 107,106.6 107,106.6 107,105 "/>
<polygon class="st0" points="136.2,86.4 136.2,86.9 137.6,87.4 137.8,87.4 137.8,87 137.6,87 "/>
<path class="st2" d="M139.5,84.7L139.5,84.7l3.6,1.3l9,3.3l1.5,0.5l1.6,0.6l1.5,0.5l3,1.1l3,1.1l0.6,0.2c0.1-0.1,0.2-0.2,0.3-0.3
	c0.3-0.3,0.6-0.6,0.8-0.9l-1.4-0.5l-6.4-2.3l-1.5-0.5l-1.6-0.6l-1.5-0.5l-9.2-3.4l-1-0.4l-2.7-1v1.7L139.5,84.7z"/>
<path class="st2" d="M171,125l-20-7.3l-4.1-1.5l-4.3-1.6l-4.1-1.5l-11.8-4.3l-1.5-0.5l-0.5-0.2H120l2.8,1l1.5,0.5l0.8,0.3l1.5,0.5
	l7.2,2.6l4.1,1.5l4.3,1.6l4.1,1.5l25.6,9.3l5.3-14.5c-0.6,0.2-1.2,0.4-1.9,0.5L171,125z"/>
<polygon class="st0" points="119.9,105 118.2,105 117.6,106.6 120.5,106.6 119.4,106.2 "/>
<polygon class="st0" points="136.2,81.8 136.2,83.5 137.2,83.9 137.8,84.1 137.8,82.4 136.9,82.1 "/>
<path class="st2" d="M152.1,100.8l0.2,0.1c0.2,0.1,0.4,0,0.4-0.2c0.1-0.2,0-0.4-0.2-0.4l-0.4-0.1l-3-1.1l-2.2,6.1
	c-0.1,0.2,0,0.4,0.2,0.5c0.2,0.1,0.4,0,0.4-0.2l0.9-2.5l1.7,0.6c0.2,0.1,0.4,0,0.4-0.2c0.1-0.2,0-0.4-0.2-0.4l-1.7-0.6l0.8-2.2
	L152.1,100.8z"/>
<path class="st2" d="M160.1,101.3c0.2-0.3,0.1-0.7-0.1-0.9l-2.8-2c-0.1-0.1-0.3-0.1-0.5-0.1c0,0,0,0,0,0c0,0,0,0,0,0
	c-0.2,0-0.3,0.2-0.4,0.3l0,0l-1.1,2.2l-0.4,0.8c-0.2,0.3,0,0.7,0.3,0.8c0,0,0,0,0.1,0c0,0,0,0,0.1,0c0.3,0.1,0.6,0,0.7-0.3l0.7-1.5
	c0,0.1,0,0.1,0,0.2c0.5,1.5,0.5,3.1,0,4.5c-0.3,1-0.8,1.8-1.5,2.6c-0.4,0.5-1,0.9-1.6,1.3c-0.2,0.1-0.5,0.3-0.7,0.4
	c-0.3,0.1-0.5,0.2-0.8,0.3c-2.5,0.8-5.2,0.3-7.2-1.5c-0.2-0.1-0.4-0.2-0.6-0.1c-0.1,0-0.2,0.1-0.3,0.2c-0.1,0.1-0.1,0.1-0.1,0.2
	c-0.1,0.2,0,0.5,0.2,0.7c0.8,0.8,1.8,1.3,2.8,1.7c1.6,0.6,3.5,0.7,5.2,0.2c0.4-0.1,0.9-0.3,1.3-0.5c0.1,0,0.1-0.1,0.2-0.1
	c0.6-0.3,1.1-0.6,1.6-1c0.6-0.5,1.1-1,1.5-1.6c1.6-2.2,2.1-5,1.2-7.6l1.4,1C159.5,101.6,159.9,101.6,160.1,101.3z"/>
<path class="st2" d="M139.5,104.5c-0.2,0.3-0.1,0.7,0.1,0.9l2.8,2c0,0,0.1,0.1,0.1,0.1c0.1,0,0.2,0,0.4,0c0,0,0,0,0,0
	c0.2,0,0.3-0.2,0.4-0.3l0-0.1l1.5-2.9c0.2-0.3,0-0.7-0.3-0.8c-0.3-0.2-0.7,0-0.8,0.3l-0.7,1.4c-0.7-2.2-0.4-4.5,0.7-6.3
	c0.4-0.6,0.9-1.2,1.5-1.7c0.4-0.4,0.9-0.7,1.5-0.9c1.7-0.8,3.6-0.9,5.4-0.3c0.2,0.1,0.4,0.1,0.6,0.2c0.3,0.1,0.6,0.3,0.9,0.5
	c0.4,0.2,0.7,0.5,1.1,0.8c0,0,0,0,0,0c0.1,0.1,0.3,0.2,0.5,0.1c0,0,0.1,0,0.1,0c0.1,0,0.2-0.1,0.3-0.2c0,0,0-0.1,0.1-0.1
	c0,0,0,0,0,0c0.1-0.2,0.1-0.5-0.1-0.7c-0.1-0.1-0.2-0.2-0.3-0.3c-0.1-0.1-0.3-0.2-0.4-0.3c-0.4-0.3-0.7-0.5-1.1-0.7
	c-0.5-0.2-1-0.4-1.4-0.6c0,0,0,0,0,0c-1.9-0.5-4-0.4-5.9,0.5c-0.3,0.1-0.5,0.3-0.8,0.4c-0.8,0.5-1.6,1.1-2.2,1.9
	c-0.4,0.5-0.8,1.1-1.1,1.6c-1,2-1.2,4.3-0.4,6.5l-1.5-1.1C140.1,104.2,139.7,104.3,139.5,104.5z"/>
<path class="st2" d="M169.6,121.4l0.8-2.2l0,0l1.7-4.9l-0.4-0.1l-1.6,4.5c-1.2-0.3-2.5,0.3-3,1.4l-4.5-1.7c-0.1,0-0.2,0-0.3,0.1
	c0,0.1,0,0.2,0.1,0.3L169.6,121.4z M170,119.1l-0.7,1.9l-1.8-0.7C168,119.3,169,118.8,170,119.1z"/>
<path class="st0" d="M126.7,105h-0.4c0,0.1,0,0.2,0,0.2l-0.6-0.2h-1.2l0.6,0.2l1.5,0.5l2.3,0.8h1.2l-3.4-1.2
	C126.6,105.3,126.7,105.1,126.7,105z"/>
<path class="st2" d="M142.1,71.8l4.8-0.6l-0.1-0.4l-7.5,1l1,7.5c0,0.1,0.1,0.2,0.2,0.2c0.1,0,0.2-0.1,0.2-0.2l-0.6-4.8
	C141.3,74.1,142.2,73,142.1,71.8z M140,74l-0.3-1.9l2-0.3C141.7,72.9,141,73.8,140,74z"/>
<path class="st2" d="M193.2,89.1l-12.8,1.7c0.6,0.4,1.1,0.9,1.6,1.4l13-1.7l-4-30L174,62.8c-0.2,0.6-0.4,1.1-0.7,1.7l16.3-2.2
	L193.2,89.1z"/>
<path class="st2" d="M151.9,67.3l1.3-0.2c-0.4-0.4-0.7-0.9-1-1.3c0,0-0.1-0.1-0.1-0.1l-0.9,0.1l-4.9,0.6l-1.3,0.2l-5.1,0.7l-0.6,0.1
	V69L151.9,67.3z"/>
<polygon class="st0" points="136.7,80.4 136.2,76.4 136.2,80.2 "/>
<polygon class="st0" points="136.2,67.8 136.2,69.4 137.6,69.2 137.8,69.2 137.8,67.6 136.5,67.7 "/>
<path class="st2" d="M165.8,76c0-0.2-0.2-0.3-0.4-0.3l-3.6,0.5l0.8,6.4c0,0.2,0.2,0.3,0.4,0.3c0.2,0,0.3-0.2,0.3-0.4l-0.4-2.7
	l1.8-0.2c0.2,0,0.3-0.2,0.3-0.4s-0.2-0.3-0.4-0.3l-1.8,0.2l-0.3-2.3l2.9-0.4C165.7,76.4,165.8,76.2,165.8,76z"/>
<path class="st2" d="M162.1,87.7c1.1,0.3,2.2,0.4,3.3,0.2c2.2-0.3,4.2-1.4,5.6-3.2c2.6-3.4,2.2-8.3-0.8-11.2l1.7,0.2
	c0.3,0,0.6-0.2,0.7-0.5c0-0.3-0.2-0.6-0.5-0.7l-3.4-0.5c-0.2,0-0.4,0-0.5,0.1c0,0,0,0,0,0c-0.1,0.1-0.2,0.3-0.2,0.5l0,0l0,3.3
	c0,0.3,0.3,0.6,0.6,0.6c0,0,0,0,0.1,0c0.3,0,0.5-0.3,0.5-0.6l0-1.7c2.7,2.5,3.1,6.7,0.8,9.6c-1.8,2.3-4.8,3.3-7.6,2.6
	c-0.2-0.1-0.4,0-0.6,0.1c-0.1,0.1-0.2,0.2-0.2,0.3c0,0.1,0,0.2,0,0.2C161.7,87.4,161.9,87.6,162.1,87.7z"/>
<path class="st2" d="M166,72.2c0.2,0.1,0.4,0,0.6-0.2c0.1-0.1,0.1-0.2,0.2-0.3c0-0.1,0-0.1,0-0.2c0-0.3-0.2-0.5-0.4-0.6
	c-0.3-0.1-0.6-0.1-0.8-0.2c-1.4-0.2-2.8-0.1-4.1,0.4c-1.5,0.5-2.9,1.5-3.9,2.8c-0.3,0.4-0.5,0.8-0.7,1.2c-1.3,2.5-1.3,5.5,0,8
	c0.4,0.8,1,1.5,1.6,2.2l-1.6-0.2l-0.2,0c-0.3,0-0.6,0.2-0.7,0.5c0,0.3,0.2,0.6,0.5,0.7l0.3,0l3.1,0.4c0.1,0,0.1,0,0.2,0
	c0.1,0,0.2-0.1,0.3-0.1c0,0,0,0,0,0c0.1-0.1,0.2-0.3,0.2-0.5l0-0.1l0-3.3c0-0.3-0.3-0.6-0.6-0.6c-0.3,0-0.6,0.3-0.6,0.6l0,1.6
	c-2.7-2.5-3.1-6.7-0.8-9.6C160.2,72.4,163.1,71.4,166,72.2z"/>
<path class="st2" d="M185.2,65.7L185.2,65.7l-5.1,0.7l0.1,0.4l4.8-0.6c0.3,1.2,1.4,2.1,2.7,2l0.6,4.8c0,0.1,0.1,0.2,0.2,0.2
	c0.1,0,0.2-0.1,0.2-0.2l-1-7.5L185.2,65.7z M185.2,66.1l2-0.3l0.3,1.9C186.4,67.8,185.5,67.1,185.2,66.1z"/>
<path class="st2" d="M187.6,86.6l-4.8,0.6c-0.1,0-0.2,0.1-0.2,0.2c0,0.1,0.1,0.2,0.2,0.2l7.5-1l-0.3-2.4l0,0l-0.7-5.1l-0.4,0.1
	l0.6,4.8C188.4,84.2,187.5,85.3,187.6,86.6z M189.6,84.3l0.3,2l-1.9,0.3C187.9,85.5,188.6,84.6,189.6,84.3z"/>
<path class="st3" d="M183.4,97.4c-0.4-1.3-1.1-2.6-2-3.6c-0.4-0.5-0.9-0.9-1.4-1.3c-0.6-0.5-1.3-0.9-2-1.3c0,0,0,0-0.1,0
	c-1.1-0.6-2.3-0.9-3.5-1c-1.9-0.2-3.7,0-5.4,0.7c-0.6,0.2-1.1,0.5-1.6,0.8c-0.5,0.3-1,0.7-1.5,1.1c0,0,0,0,0,0
	c-0.4,0.4-0.8,0.8-1.2,1.2c-0.2,0.2-0.3,0.4-0.5,0.6c-0.2,0.2-0.3,0.4-0.4,0.6c-0.1,0.2-0.3,0.5-0.4,0.7c0,0.1-0.1,0.2-0.1,0.2
	c-2.5,5.3-0.4,11.7,4.9,14.3c1.9,1,4,1.3,5.9,1.1c0.6-0.1,1.1-0.2,1.7-0.3c0.7-0.2,1.3-0.4,1.9-0.7c0.7-0.3,1.4-0.8,2.1-1.3
	c1.2-0.9,2.2-2.1,2.9-3.6c1.1-2.3,1.4-4.7,0.9-7C183.7,98.3,183.6,97.8,183.4,97.4z M182,103.6l-0.3,0.8c-0.1,0.2-0.2,0.4-0.3,0.6
	c-0.7,1.3-1.6,2.4-2.7,3.2c-0.7,0.5-1.4,0.9-2.1,1.2c-0.6,0.2-1.2,0.4-1.8,0.5c-1.9,0.4-4,0.1-5.8-0.8c-4.5-2.3-6.4-7.9-4.1-12.4
	c0.1-0.3,0.3-0.5,0.4-0.7c0-0.1,0.1-0.1,0.1-0.2c0.3-0.4,0.6-0.9,1-1.2c0.1-0.1,0.2-0.2,0.3-0.3c0.3-0.3,0.7-0.6,1.1-0.9
	c0.5-0.4,1.1-0.7,1.7-1c0.1,0,0.2-0.1,0.3-0.1c1.4-0.5,2.9-0.7,4.3-0.6c1.1,0.1,2.2,0.4,3.2,0.9c0.1,0.1,0.2,0.1,0.3,0.2
	c0.6,0.4,1.2,0.8,1.8,1.3c0.8,0.8,1.5,1.7,2,2.6c0.3,0.6,0.5,1.2,0.7,1.8c0,0.1,0,0.1,0.1,0.2C182.5,100.3,182.5,102,182,103.6z"/>
<path class="st3" d="M176,98C176,98,176,98,176,98c-0.1-0.1-0.3-0.2-0.4-0.3l-0.1-0.1l0.4-0.8c0-0.1,0-0.2-0.1-0.3
	c-0.1,0-0.2,0-0.3,0.1l-0.4,0.8l-0.1-0.1l-0.4-0.2l0.4-0.8l0,0c0-0.1,0-0.2-0.1-0.3c0,0,0,0,0,0c-0.1,0-0.2,0-0.3,0.1l-0.4,0.8
	l-0.5-0.3l-0.4-0.2l-0.4-0.2l-0.1-0.1c-0.1,0-0.2,0-0.3,0.1c0,0.1,0,0.2,0.1,0.3l0.1,0.1l0.4,0.2l0,0l-0.4,0.8l-0.2,0.4l-0.1,0.2
	l0,0.1l-0.6,1.1l-0.2,0.4l-0.7,1.3l-0.3,0.7l-0.3,0.5l-0.4,0.8l-0.4-0.2l-0.1-0.1c-0.1,0-0.2,0-0.3,0.1s0,0.2,0.1,0.3l0.1,0.1
	l0.4,0.2l0.4,0.2l0.5,0.3l-0.4,0.8c0,0.1,0,0.2,0.1,0.3s0.2,0,0.3-0.1l0.4-0.8l0.5,0.2l-0.3,0.5l-0.1,0.3c0,0.1,0,0.2,0.1,0.3
	c0.1,0,0.2,0,0.3-0.1l0.4-0.8l0.1,0.1c0.1,0.1,0.3,0.1,0.4,0.2c0.3,0.1,0.7,0.1,1,0.1c0.1,0,0.1,0,0.2,0c0.7-0.1,1.3-0.6,1.6-1.2
	c0,0,0,0,0-0.1c0.1-0.1,0.1-0.2,0.1-0.4c0.2-0.8,0-1.6-0.5-2.2c0,0,0,0,0-0.1c0.2,0,0.4-0.1,0.6-0.2c0.3-0.2,0.6-0.4,0.8-0.8
	c0-0.1,0.1-0.2,0.1-0.2c0-0.1,0-0.2,0.1-0.2c0-0.2,0-0.4,0-0.6C176.4,98.5,176.2,98.2,176,98z M175.1,102.8c0,0.1-0.1,0.3-0.1,0.4
	c0,0,0,0.1-0.1,0.1c-0.2,0.5-0.6,0.8-1.1,1c-0.1,0-0.2,0-0.2,0.1c-0.3,0.1-0.6,0.1-0.9,0c-0.1,0-0.3-0.1-0.4-0.2l-0.3-0.1l-1.5-0.7
	l-0.1-0.1l0.6-1.1l0.1-0.2l0.4-0.7l0.7-1.3l0.1-0.1l1.2,0.6l0.6,0.3c0.1,0,0.1,0.1,0.1,0.1c0.1,0.1,0.2,0.2,0.4,0.3
	C175,101.6,175.2,102.2,175.1,102.8z M176.1,99.4c0,0.1,0,0.2-0.1,0.2c0,0.1,0,0.1-0.1,0.2c-0.2,0.4-0.7,0.7-1.1,0.7
	c-0.2,0-0.4,0-0.6-0.1l-0.8-0.4l-1.1-0.5l0.5-1l0,0l0.1-0.2l0,0c0,0,0,0,0,0l0.6-1.1l0,0l0.1,0l0.7,0.3l0,0h0l0.5,0.3l0.6,0.3
	c0.1,0.1,0.2,0.2,0.3,0.3c0.2,0.2,0.4,0.5,0.4,0.9C176.1,99.2,176.1,99.3,176.1,99.4z"/>
<path class="st3" d="M152.5,63.5c0.1,0.2,0.2,0.4,0.3,0.6c0.2,0.3,0.3,0.6,0.5,0.9c0.1,0.2,0.2,0.3,0.4,0.5c0.4,0.5,0.8,1,1.3,1.4
	c0,0,0.1,0.1,0.1,0.1c0.5,0.4,1,0.8,1.5,1.1v0.1l0.1,0c1.3,0.8,2.8,1.3,4.4,1.5c1,0.1,2.1,0.1,3.2-0.1c0.3-0.1,0.7-0.2,1-0.2
	c1.9-0.5,3.5-1.6,4.8-2.9c0.5-0.5,0.9-1.1,1.3-1.7c0.3-0.5,0.6-1.1,0.9-1.7c0.2-0.5,0.4-1,0.5-1.6c0.3-1.4,0.4-3,0.1-4.5
	c-1.1-5.9-6.8-9.7-12.7-8.6c-0.7,0.1-1.4,0.3-2.1,0.6c-0.5,0.2-0.9,0.4-1.4,0.7c-0.5,0.3-0.9,0.6-1.3,0.9c-0.4,0.3-0.8,0.7-1.1,1
	c-2.3,2.4-3.5,5.9-2.8,9.5C151.9,61.8,152.2,62.7,152.5,63.5z M154.7,53.8c0.4-0.6,0.9-1.2,1.5-1.7c0.4-0.4,0.9-0.8,1.4-1.1
	c0.4-0.3,0.9-0.5,1.4-0.7c0.5-0.2,1.1-0.4,1.6-0.5c5-1,9.9,2.3,10.8,7.3c0.3,1.5,0.2,3.1-0.3,4.5c-0.2,0.6-0.4,1.1-0.7,1.6
	c-0.3,0.6-0.7,1.2-1.2,1.8c-0.6,0.7-1.3,1.3-2.1,1.8c-0.9,0.6-2,1-3.1,1.2c-1.5,0.3-3,0.2-4.4-0.2c-0.4-0.1-0.8-0.3-1.2-0.5
	c-0.4-0.2-0.9-0.4-1.3-0.7c-0.4-0.2-0.7-0.5-1-0.8c-0.2-0.2-0.4-0.4-0.6-0.6c-0.1-0.1-0.2-0.2-0.2-0.3c-0.3-0.3-0.6-0.7-0.8-1.1
	c-0.1-0.1-0.2-0.3-0.2-0.4c-0.5-0.9-0.8-1.8-1-2.8C152.8,58.2,153.4,55.7,154.7,53.8z"/>
<path class="st3" d="M159.4,55.9l0.1,0c0.1,0.3,0.3,0.6,0.6,0.8l0.1,0.6l0.8,3.9l0.1,0.6l0.2,0.9l-0.4,0.1l-0.1,0
	c-0.1,0-0.2,0.1-0.2,0.2c0,0,0,0,0,0c0,0.1,0.1,0.1,0.2,0.1l0.1,0l0.4-0.1l0.5-0.1l0.6-0.1l0.2,0.9c0,0.1,0.1,0.2,0.2,0.2
	s0.2-0.1,0.2-0.2l-0.2-0.9l0.5-0.1l0.1,0.6l0.1,0.3c0,0.1,0.1,0.2,0.2,0.2s0.2-0.1,0.2-0.2l-0.2-0.9l0,0l0.1,0
	c0.2,0,0.3-0.1,0.4-0.1c0.3-0.1,0.6-0.3,0.8-0.5c0.5-0.5,0.8-1.3,0.6-2.1c-0.2-1-1-1.7-1.9-1.9c0.4-0.4,0.7-1,0.6-1.6
	c-0.1-0.4-0.3-0.7-0.6-1c-0.3-0.2-0.6-0.4-0.9-0.4c-0.2,0-0.3,0-0.5,0l-0.1,0l-0.2-0.9c0-0.1-0.1-0.2-0.2-0.2
	c-0.1,0-0.2,0.1-0.2,0.2l0.2,0.9l-0.1,0l-0.4,0.1l-0.2-0.9l0,0c0-0.1-0.1-0.2-0.2-0.2c0,0,0,0,0,0c-0.1,0-0.2,0.1-0.2,0.2l0.2,0.9
	l-0.6,0.1l-0.3,0.1h0l-0.6,0.1l-0.1,0c0,0-0.1,0-0.1,0.1c0,0-0.1,0.1,0,0.2c0,0,0,0,0,0.1C159.3,55.9,159.3,55.9,159.4,55.9z
	 M165.3,59.9c0.1,0.6-0.1,1.2-0.4,1.7c-0.2,0.2-0.4,0.4-0.7,0.5c-0.1,0.1-0.3,0.1-0.4,0.1l-0.3,0.1l-1.6,0.3l0,0l-0.1,0l0,0
	l-0.2-1.2l0-0.3l-0.5-2.4l2.1-0.4C164.1,58.1,165.1,58.8,165.3,59.9z M160.5,55.7l1.3-0.3l0.6-0.1c0.1,0,0.3,0,0.4,0
	c0.3,0,0.6,0.2,0.8,0.4c0.1,0.2,0.3,0.4,0.3,0.6c0.1,0.7-0.3,1.4-1,1.5l-2.1,0.4l-0.2-1.1l0-0.2l-0.2-1.2L160.5,55.7z"/>
<g>
	<path class="st2" d="M25.6,40.8L2.9,32.2l9.6-25.3l29.6,11.2c0-0.5,0.1-1.1,0.2-1.6L11.5,4.8L0.8,33.1l22.4,8.4L25.6,40.8z"/>
	<path class="st2" d="M35.8,27.3c0.2,0.1,0.4,0,0.5-0.2c0.1-0.2,0-0.4-0.2-0.5l-3.4-1.3l-2.3,6c-0.1,0.2,0,0.4,0.2,0.5
		c0.2,0.1,0.4,0,0.5-0.2l1-2.5l1.7,0.6c0.2,0.1,0.4,0,0.5-0.2c0.1-0.2,0-0.4-0.2-0.5l-1.7-0.6l0.8-2.2L35.8,27.3z"/>
	<path class="st2" d="M40.2,24.7C40.2,24.7,40.2,24.7,40.2,24.7c-0.2,0-0.3,0.2-0.4,0.3l0,0L38.3,28c-0.1,0.1-0.1,0.2-0.1,0.4
		c0,0.2,0.1,0.4,0.3,0.5c0,0,0,0,0.1,0c0.3,0.1,0.6,0,0.8-0.3l0.7-1.4c0,0,0.1,0,0.1,0c0.2,0.5,0.3,1,0.3,1.5c0.1,0.6,0.1,1.2,0,1.8
		c-0.1,0.8-0.4,1.7-0.8,2.4c-0.4,0.7-0.9,1.4-1.6,1.9c-0.4,0.4-0.9,0.7-1.5,1c-0.1,0-0.2,0.1-0.3,0.1c-2.7,1.2-5.8,0.7-7.9-1.3
		c-0.2-0.1-0.4-0.2-0.6-0.1c-0.1,0-0.2,0.1-0.3,0.2c-0.1,0.1-0.1,0.1-0.1,0.2c-0.1,0.2,0,0.5,0.2,0.7c0.8,0.8,1.8,1.4,2.8,1.7
		c1.4,0.5,3,0.7,4.5,0.4c0.6-0.1,1.1-0.3,1.7-0.5c0.1,0,0.2-0.1,0.2-0.1c0.1,0,0.2-0.1,0.2-0.1c0.4-0.2,0.7-0.4,1-0.6
		c0.6-0.4,1.1-0.9,1.6-1.4c0.6-0.7,1.1-1.5,1.5-2.4c0.1-0.3,0.3-0.7,0.4-1.1c0.1-0.5,0.2-1.1,0.3-1.6c0-0.5,0-1,0-1.6
		c-0.1-0.5-0.2-1-0.3-1.5c0,0,0,0,0.1,0l1.3,1c0.3,0.2,0.7,0.1,0.9-0.1c0.2-0.3,0.1-0.7-0.1-0.9l0,0l-2.8-2
		C40.6,24.7,40.4,24.7,40.2,24.7z"/>
	<path class="st2" d="M26.8,33.4L26.8,33.4l1.5-3c0.2-0.3,0-0.7-0.3-0.8c-0.3-0.2-0.7,0-0.8,0.3l-0.7,1.4c-1.2-3.5,0.4-7.3,3.8-8.9
		c2.7-1.2,5.8-0.7,7.9,1.3c0.2,0.2,0.4,0.2,0.6,0.1c0.1,0,0.2-0.1,0.3-0.2c0,0,0.1-0.1,0.1-0.1c0.1-0.2,0.1-0.5-0.1-0.7
		c-2.5-2.3-6.1-2.9-9.3-1.5c-4,1.8-5.9,6.3-4.6,10.4l-1.4-1.1c-0.3-0.2-0.7-0.1-0.9,0.1c-0.2,0.3-0.1,0.7,0.1,0.9l2.8,2.1
		c0,0,0.1,0.1,0.1,0.1c0.1,0,0.2,0.1,0.4,0c0,0,0,0,0-0.1l0,0.1C26.5,33.7,26.7,33.6,26.8,33.4z"/>
	<path class="st2" d="M17.4,12.1l4.5,1.7l0.1-0.4l-7.1-2.7l-2.7,7.1c0,0.1,0,0.2,0.1,0.3c0.1,0,0.2,0,0.3-0.1l1.7-4.5
		C15.5,13.8,16.8,13.3,17.4,12.1z M14.5,13.1l0.7-1.8L17,12C16.5,12.9,15.5,13.4,14.5,13.1z"/>
	<path class="st2" d="M70.7,53.3l-1.5-4.5l-0.4-1.3l-0.5-1.5L68,45.2l-0.5-1.5l-0.1-0.4l-2-6.1l-0.5-1.5L64.6,35l-0.4-1.3l-0.1-0.2
		l-0.5-1.6l-0.1-0.4l-0.1-0.4L63,30.3L62.9,30l-0.7,0.2L62,30.3l-1,0.3l-0.6,0.2l-1.1,0.4l-0.1,0l-0.5,0.2l-0.3,0.1L56.9,32
		l-15.8,5.2l-1.5,0.5L38,38.2v-0.1c-0.1,0.1-0.3,0.1-0.4,0.2l-1.1,0.4l-1.3,0.4L30,40.9l-2.2,0.7l-2.4,0.8l-2.2,0.7L7.9,48.2
		l9.5,28.7l7.7-2.6c-0.2-0.2-0.3-0.4-0.4-0.6c-0.2-0.2-0.3-0.5-0.5-0.8l-5.8,1.9L9.9,49.2L25.5,44l2.2-0.7l2.4-0.8l2.2-0.7l4.2-1.4
		l1.5-0.5l1.6-0.5l1.5-0.5l15.1-5l1.1-0.4l0.7-0.2l0.5-0.2l1.2-0.4l0.3-0.1l0.3-0.1l1.1-0.4l0,0l0.4-0.1l0.5,1.4l0,0.1l0.1,0.4
		l0.4,1.1l0.3,0.8l0.1,0.3l0.4,1.2l2.2,6.5l0.5,1.5l0.3,0.8l0.5,1.5l2.1,6.3l1.3,3.8l-1.3,0.4L47,65.4c0.1,0.5,0.1,1.1,0,1.6
		l22.1-7.3l1.5-0.5l0.8-0.3l1-0.3l-1-3L70.7,53.3z"/>
	<path class="st2" d="M40.6,50.5l0.3-0.1c0.2-0.1,0.3-0.3,0.2-0.4c0,0,0,0,0,0c-0.1-0.2-0.3-0.3-0.4-0.2l-0.1,0l0,0l-1.5,0.5
		l-1.9,0.6l1.4,4.2l0.5,1.5l0.1,0.4c0.2,0.1,0.4,0.2,0.6,0.3c0.1-0.1,0.2-0.2,0.1-0.4l-0.5-1.4l-0.4-1.1v-0.1l1.5-0.5l0.2-0.1
		c0.2-0.1,0.3-0.3,0.2-0.4c-0.1-0.2-0.2-0.3-0.4-0.2c0,0,0,0,0,0l-1.4,0.5l-0.3,0.1l-0.7-2.2l1-0.3L40.6,50.5z"/>
	<path class="st2" d="M46.8,43.7L46.8,43.7L46.8,43.7C46.8,43.7,46.8,43.7,46.8,43.7z"/>
	<path class="st2" d="M48.7,52.8c-0.1-0.6-0.2-1.2-0.4-1.7c-0.2-0.7-0.5-1.4-0.9-2c-0.3-0.5-0.7-1-1.2-1.5c-0.3-0.3-0.6-0.6-0.9-0.8
		c-0.1-0.1-0.2-0.2-0.3-0.3l0,0l1.7-0.1c0.2,0,0.4-0.2,0.5-0.4c0-0.1,0-0.1,0-0.2c0,0,0-0.1,0-0.1c0-0.1-0.1-0.3-0.2-0.4
		c-0.1-0.1-0.2-0.2-0.4-0.2c0,0-0.1,0-0.1,0l-0.1,0l-0.3,0l-0.5,0l-1.5,0.1l-1,0c-0.2,0-0.3,0.1-0.5,0.2c0,0,0,0,0,0c0,0,0,0,0,0
		c-0.1,0.1-0.1,0.3-0.1,0.4c0,0,0,0,0,0l0,0l0.2,1.2l0.4,1.8l0,0.2c0,0.2,0.2,0.4,0.4,0.4c0.1,0,0.2,0.1,0.3,0c0,0,0,0,0.1,0
		c0.1,0,0.2-0.1,0.3-0.2c0.1-0.1,0.1-0.3,0.1-0.5l-0.3-1.3l-0.1-0.2h0.1c0.2,0.2,0.5,0.3,0.7,0.5c0.8,0.7,1.4,1.5,1.8,2.4
		c0.3,0.6,0.5,1.2,0.6,1.8c0.3,1.5,0.1,3.1-0.6,4.5c-0.5,1-1.2,1.9-2.1,2.5c0.1,0.1,0.2,0.2,0.2,0.3c0.2,0.2,0.3,0.5,0.5,0.7
		c1-0.8,1.9-1.8,2.5-3C48.6,55.9,48.8,54.3,48.7,52.8z"/>
	<path class="st2" d="M41.2,45.2c0-0.1-0.1-0.2-0.2-0.2c-0.1-0.1-0.2-0.1-0.3-0.1c0,0,0,0,0,0c-0.3,0-0.7,0-1,0
		c-0.5,0-1.1,0.1-1.6,0.2c-0.2,0-0.4,0.1-0.6,0.2c-0.3,0.1-0.6,0.2-0.9,0.4c-0.4,0.2-0.7,0.4-1.1,0.6c-0.5,0.3-0.9,0.7-1.3,1.1
		c-0.6,0.6-1.2,1.4-1.6,2.2c-0.8,1.7-1.1,3.5-0.8,5.3c0.4-0.1,0.8-0.2,1.2-0.2c-0.3-1.5-0.1-3,0.6-4.5c0.5-0.9,1.1-1.7,1.8-2.3
		c0.4-0.3,0.7-0.6,1.1-0.8c0.1-0.1,0.3-0.1,0.4-0.2c0.8-0.4,1.7-0.6,2.7-0.7c0.3,0,0.6,0,0.9,0c0,0,0,0,0,0c0.2,0,0.4-0.1,0.5-0.3
		c0.1-0.1,0.1-0.2,0.1-0.3c0-0.1,0-0.1,0-0.2C41.2,45.3,41.2,45.3,41.2,45.2z"/>
	<path class="st2" d="M61.2,37.5l-0.1-0.3l-0.5-1.5l-0.1-0.3l-0.2,0.1l-0.7,0.2L59,35.8L58.4,36l-0.2,0.1l0,0l-1.3,0.4l-1.7,0.6
		l-2,0.7l0.1,0.4l3.1-1l1.5-0.5c0,0.1,0.1,0.2,0.2,0.3c0.1,0.1,0.1,0.2,0.2,0.2c0.3,0.4,0.6,0.6,1,0.8c0.5,0.2,1.1,0.3,1.6,0.1l0,0
		l0.7,2.2l0.8,2.3c0,0.1,0.1,0.2,0.2,0.1c0.1,0,0.2-0.1,0.1-0.2l-0.9-2.8L61.2,37.5z M59.4,37.6c-0.2-0.1-0.5-0.2-0.6-0.4
		c-0.2-0.2-0.4-0.4-0.5-0.7l1.7-0.6l0.1,0l0.4,1.3l0.2,0.5C60.3,37.8,59.9,37.8,59.4,37.6z"/>
	<path class="st2" d="M59.8,58c0,0.1,0.1,0.2,0.2,0.1l7.2-2.4l-0.7-2.3l0,0l-1.7-4.9l-0.4,0.1l1.5,4.6c-1.2,0.5-1.8,1.8-1.5,3
		l-4.6,1.5C59.8,57.8,59.7,57.9,59.8,58z M66.1,53.6l0.6,1.9l-1.8,0.6C64.6,55.1,65.1,54,66.1,53.6z"/>
	<path class="st2" d="M23,70.4c0-0.1-0.1-0.3-0.1-0.4l-1.6,0.5l-0.6-1.9c0.7-0.2,1.5,0.1,2,0.6c0-0.2-0.1-0.4-0.1-0.6
		c-0.6-0.4-1.3-0.6-2.1-0.4l-1.5-4.6l-0.4,0.1l2.4,7.2L23,70.4z"/>
	<path class="st2" d="M9.9,23.7l-2.7,7.1l7.1,2.7c0.1,0,0.2,0,0.3-0.1c0-0.1,0-0.2-0.1-0.3l-4.5-1.7c0.4-1.2-0.2-2.5-1.4-3l1.7-4.5
		L9.9,23.7z M9.5,31.2l-1.8-0.7l0.7-1.8C9.3,29.2,9.8,30.2,9.5,31.2z"/>
	<g>
		<path class="st4" d="M33.3,23.3c-0.5,0-0.9,0.1-1.4,0.2l4.6,1.7c0.5,0.2,0.8,0.5,1,0.9l0.4-0.8c-0.3-0.1-0.6-0.2-0.8-0.4
			C36.1,23.9,34.8,23.3,33.3,23.3z"/>
		<path class="st4" d="M35.9,28.8c-0.1,0-0.3,0-0.4,0c0.2,0.4,0.2,0.9,0,1.3c-0.3,0.7-1,1.2-1.7,1.2c-0.2,0-0.4,0-0.6-0.1L32.8,31
			l-0.4,1.1c-0.3,0.7-1,1.2-1.7,1.2c-0.2,0-0.4,0-0.7-0.1c-0.5-0.2-0.8-0.5-1-0.9l-0.4,0.8c0.3,0.1,0.6,0.2,0.8,0.4
			c1.1,1,2.5,1.6,3.9,1.6c0.8,0,1.6-0.2,2.4-0.5l0.2-0.1c0.4-0.2,0.8-0.5,1.2-0.8c0.5-0.4,0.9-1,1.2-1.5c0.3-0.6,0.5-1.2,0.6-1.8
			c0,0-0.1,0-0.1,0c-0.3,0-0.5,0-0.7-0.1l-0.1,0l-0.1-0.1c-0.6-0.3-1-0.9-1.1-1.6C36.5,28.7,36.2,28.8,35.9,28.8
			C35.9,28.8,35.9,28.8,35.9,28.8z"/>
		<path class="st4" d="M30.9,23.8c-1.8,0.8-3,2.4-3.3,4.3c0,0,0.1,0,0.1,0c0.4,0,0.7,0.1,1,0.3c0.3,0.2,0.6,0.5,0.8,0.8l2.1-5.7
			C31.5,23.6,31.2,23.7,30.9,23.8z"/>
		<polygon class="st0" points="60,105 60,64.4 58.4,64.9 58.4,106.6 87.5,106.6 87.5,105 		"/>
		<polygon class="st0" points="71.4,37.3 70,37.3 69.9,37.3 69.2,37.3 69.1,37.3 68.4,37.3 68.3,37.3 66.8,37.3 67.4,38.9 
			68.4,38.9 80.6,38.9 81.9,37.3 		"/>
		<polygon class="st0" points="85.6,55.3 85.6,54.4 72.6,54.4 72.9,55.3 		"/>
		<path class="st2" d="M46.8,43.7C46.8,43.7,46.8,43.7,46.8,43.7L46.8,43.7L46.8,43.7z"/>
	</g>
	<path class="st2" d="M21.3,48.2l-7.2,2.4l2.4,7.2c0,0.1,0.1,0.2,0.2,0.1c0.1,0,0.2-0.1,0.1-0.2l-1.5-4.6c1.2-0.5,1.8-1.7,1.5-3
		l4.6-1.5L21.3,48.2z M15.3,52.7l-0.6-1.8l1.9-0.6C16.7,51.2,16.2,52.3,15.3,52.7z"/>
</g>
<g>
	<path class="st3" d="M64.3,14.5c-0.3-0.7-0.7-1.3-1.1-1.9c-0.5-0.8-1.2-1.5-1.9-2.1c-1.1-0.9-2.4-1.6-3.8-2
		C51.8,6.7,45.8,9.9,44,15.5c0,0.1,0,0.1-0.1,0.2c-0.1,0.4-0.2,0.9-0.3,1.3c-0.1,0.5-0.1,1.1-0.1,1.6c0,0.6,0,1.1,0.1,1.6
		c0.4,2.6,1.6,4.9,3.5,6.6c0.5,0.5,1.1,0.9,1.7,1.2c0.1,0.1,0.3,0.2,0.4,0.2c0.6,0.3,1.2,0.6,1.9,0.8c0.7,0.2,1.5,0.4,2.2,0.4
		c1,0.1,2,0,2.9-0.2c0.5-0.1,1-0.2,1.4-0.4c0.1,0,0.2-0.1,0.4-0.1c0.4-0.2,0.8-0.3,1.2-0.5c0.2-0.1,0.3-0.2,0.4-0.3
		c0.1-0.1,0.3-0.2,0.4-0.3c0.4-0.3,0.8-0.6,1.2-0.9c0,0,0.1-0.1,0.1-0.1c0,0,0.1-0.1,0.1-0.1c0.3-0.3,0.7-0.6,1-1
		c0.4-0.4,0.7-0.9,1-1.3c0.3-0.4,0.5-0.9,0.7-1.3c0.2-0.4,0.3-0.8,0.5-1.3c0.6-1.9,0.6-3.9,0.1-5.7C64.7,15.6,64.5,15.1,64.3,14.5z
		 M62,23.9c-0.3,0.5-0.7,0.9-1,1.3c-0.3,0.3-0.7,0.6-1.1,0.9c-0.1,0.1-0.2,0.1-0.2,0.2c-0.3,0.2-0.6,0.4-0.9,0.6
		c-0.2,0.1-0.3,0.2-0.5,0.3c-0.2,0.1-0.4,0.2-0.6,0.3c-0.8,0.3-1.6,0.5-2.5,0.6C54.6,28,54,28,53.5,28c-0.5,0-1-0.1-1.5-0.3
		c-0.1,0-0.2,0-0.2-0.1c-0.5-0.1-0.9-0.3-1.3-0.5c-0.2-0.1-0.3-0.2-0.5-0.2c-0.4-0.2-0.7-0.4-1-0.6c-1.8-1.3-3-3.2-3.5-5.3
		c-0.1-0.5-0.2-1.1-0.2-1.7c0-0.5,0-1.1,0.1-1.7c0.1-0.5,0.2-0.9,0.3-1.4c0,0,0,0,0-0.1c1.3-4.1,5.2-6.7,9.3-6.5
		c0.7,0,1.4,0.2,2.1,0.4c1.3,0.4,2.4,1,3.3,1.8c0.7,0.6,1.4,1.4,1.9,2.2c0.4,0.6,0.6,1.2,0.9,1.8c0.6,1.8,0.7,3.8,0.2,5.7
		c-0.1,0.4-0.3,0.8-0.4,1.2C62.6,23.1,62.3,23.5,62,23.9z"/>
	<path class="st3" d="M56.6,15.5c-0.1-0.1-0.3-0.2-0.4-0.2l-0.1,0l0.3-0.9c0-0.1,0-0.2-0.1-0.2c-0.1,0-0.2,0-0.2,0.1l-0.3,0.9
		l-0.1,0L55.2,15l0.2-0.8c0,0,0,0,0,0c0,0,0,0,0,0l0,0c0-0.1,0-0.2-0.1-0.2c0,0,0,0,0,0c-0.1,0-0.2,0-0.2,0.1l-0.1,0.4l-0.1,0.5
		l-0.3-0.1l-0.2-0.1l-0.5-0.1l-0.4-0.1l-0.1,0c-0.1,0-0.2,0-0.2,0.1c0,0.1,0,0.2,0.1,0.2l0.1,0l0.4,0.1l-0.3,0.9l-0.2,0.6l-0.7,2.4
		l-0.4,1.4l0,0L52,20.6l0,0.2l-0.3,0.9l-0.4-0.1l-0.1,0c0,0,0,0,0,0c-0.1,0-0.2,0-0.2,0.1c0,0.1,0,0.2,0.1,0.2l0.1,0l0.4,0.1
		l0.4,0.1v0.2l0.1-0.2l0,0l0,0l0.5,0.2l-0.3,0.9c0,0.1,0,0.2,0.1,0.2c0,0,0,0,0,0c0.1,0,0.1,0,0.2,0c0,0,0.1,0,0.1-0.1l0.3-0.9
		l0.5,0.1l-0.2,0.6l-0.1,0.3c0,0.1,0,0.1,0,0.2c0,0,0.1,0.1,0.1,0.1c0,0,0.1,0,0.1,0l0,0v0c0,0,0.1-0.1,0.1-0.1l0.3-0.9l0.1,0
		c0.2,0,0.3,0.1,0.5,0.1c0.1,0,0.2,0,0.3,0c0.2,0,0.5,0,0.7-0.1c0.5-0.2,0.9-0.5,1.2-0.9c0.2-0.2,0.3-0.4,0.4-0.7
		c0.1-0.2,0.1-0.5,0.1-0.7c0-0.7-0.4-1.4-0.9-1.9c0.6-0.1,1.1-0.6,1.2-1.2c0.1-0.4,0.1-0.8-0.1-1.1C57.1,15.9,56.9,15.7,56.6,15.5z
		 M56.6,20.3c0,0.2,0,0.5-0.1,0.7c-0.1,0.3-0.2,0.5-0.4,0.7c-0.2,0.3-0.5,0.5-0.8,0.6c-0.3,0.1-0.6,0.2-0.9,0.2
		c-0.1,0-0.3,0-0.4-0.1l-0.3-0.1l-0.3-0.1l-1.3-0.4l-0.1,0l0,0l0.4-1.2l0.1-0.2l0,0l0.4-1.4l0.3-0.9l0.3,0.1l1.7,0.5
		C56,18.8,56.5,19.5,56.6,20.3z M56.9,17.3c-0.2,0.7-0.9,1.1-1.6,0.9l-1.8-0.5l-0.2-0.1l0.2-0.6l0.1-0.5l0.1-0.2l0.2-0.8
		c0.1-0.1,0.1-0.2,0.2-0.3l0,0l0.7,0.2c0,0,0,0,0,0s0,0,0,0l0.6,0.2l0.3,0.1l0,0h0l0.3,0.1c0.1,0,0.3,0.1,0.4,0.2
		c0.3,0.2,0.4,0.5,0.5,0.8C57,16.8,57,17,56.9,17.3z"/>
</g>
<g>
	<path class="st3" d="M37.8,57.7c-0.7-0.2-1.4-0.3-2.1-0.3c-0.9-0.1-1.8,0-2.8,0.2c-1.3,0.3-2.6,0.8-3.8,1.6
		c-4.7,3.3-5.9,9.7-2.7,14.4c0,0.1,0.1,0.1,0.1,0.2c0.2,0.4,0.5,0.7,0.8,1c0.4,0.4,0.7,0.8,1.1,1.1c0.4,0.3,0.8,0.6,1.3,0.9
		c2.1,1.3,4.7,1.7,7.1,1.3c0.7-0.1,1.3-0.3,2-0.5c0.1-0.1,0.3-0.1,0.4-0.2c0.6-0.3,1.2-0.6,1.8-1c0.6-0.4,1.1-0.9,1.6-1.4
		c0.7-0.7,1.2-1.5,1.6-2.3c0.2-0.4,0.4-0.9,0.6-1.3c0-0.1,0.1-0.2,0.1-0.4c0.1-0.4,0.2-0.8,0.3-1.2c0-0.2,0.1-0.3,0.1-0.5
		c0-0.2,0-0.3,0.1-0.5c0-0.5,0.1-1,0-1.5c0,0,0-0.1,0-0.1c0,0,0-0.1,0-0.1c0-0.4-0.1-0.9-0.2-1.3c-0.1-0.5-0.2-1-0.4-1.5
		c-0.2-0.5-0.4-0.9-0.6-1.3c-0.2-0.4-0.4-0.8-0.7-1.1c-1.1-1.6-2.6-2.8-4.2-3.5C38.9,58,38.3,57.8,37.8,57.7z M43.5,65
		c0.2,0.5,0.3,1,0.3,1.6c0.1,0.5,0.1,0.9,0.1,1.4c0,0.1,0,0.2,0,0.3c0,0.3-0.1,0.7-0.1,1c0,0.2-0.1,0.4-0.1,0.5
		c0,0.2-0.1,0.4-0.2,0.6c-0.2,0.8-0.6,1.5-1.1,2.2c-0.3,0.5-0.7,0.9-1.1,1.3c-0.3,0.3-0.7,0.7-1.1,1c-0.1,0-0.1,0.1-0.2,0.2
		c-0.4,0.3-0.8,0.5-1.2,0.7c-0.2,0.1-0.3,0.2-0.5,0.2c-0.4,0.1-0.7,0.3-1.1,0.4c-2.1,0.6-4.3,0.4-6.2-0.5c-0.5-0.2-1-0.5-1.4-0.8
		c-0.4-0.3-0.8-0.7-1.2-1.1c-0.3-0.3-0.6-0.7-0.9-1.1c0,0,0,0,0-0.1c-2.4-3.4-2-8,0.7-11c0.5-0.5,1-1,1.6-1.4c1-0.7,2.2-1.2,3.4-1.4
		c0.9-0.2,1.8-0.2,2.8-0.1c0.6,0.1,1.3,0.2,1.9,0.4c1.7,0.6,3.3,1.7,4.4,3.3c0.2,0.3,0.4,0.7,0.6,1C43.2,64.1,43.4,64.6,43.5,65z"/>
	<path class="st3" d="M33.9,64.1c-0.1,0-0.3,0.1-0.4,0.2l-0.1,0.1l-0.5-0.7c-0.1-0.1-0.2-0.1-0.3,0c-0.1,0.1-0.1,0.2,0,0.3l0.5,0.7
		L33,64.6l-0.3,0.2l-0.5-0.7c0,0,0,0,0,0c0,0,0,0,0,0l0,0C32.1,64,32,64,31.9,64c0,0,0,0,0,0c-0.1,0.1-0.1,0.2,0,0.3l0.2,0.4
		l0.3,0.4l-0.3,0.2l-0.2,0.1l-0.4,0.3l-0.3,0.2l-0.1,0.1c-0.1,0.1-0.1,0.2,0,0.3c0.1,0.1,0.2,0.1,0.3,0l0.1-0.1l0.3-0.2l0.5,0.7
		l0.3,0.5l1.4,2l0.8,1.2l0,0l0.2,0.3l0.1,0.1l0.5,0.7l-0.3,0.2l-0.1,0.1c0,0,0,0,0,0c-0.1,0.1-0.1,0.2,0,0.3c0.1,0.1,0.2,0.1,0.3,0
		l0.1-0.1l0.3-0.2l0.3-0.2l0.2,0.1l-0.1-0.2l0,0l0,0l0.4-0.3l0.5,0.7c0.1,0.1,0.2,0.1,0.3,0c0,0,0,0,0,0c0.1,0,0.1-0.1,0.1-0.2
		c0,0,0-0.1,0-0.1L36.9,71l0.4-0.3l0.3,0.5l0.2,0.2c0,0,0.1,0.1,0.1,0.1c0,0,0.1,0,0.1,0c0,0,0,0,0-0.1l0,0l0,0c0-0.1,0-0.1,0-0.2
		l-0.5-0.7l0.1-0.1c0.1-0.1,0.2-0.2,0.3-0.3c0.1-0.1,0.1-0.1,0.2-0.2c0.1-0.2,0.3-0.4,0.3-0.6c0.2-0.4,0.2-0.9,0.1-1.4
		c-0.1-0.2-0.2-0.5-0.3-0.7c-0.1-0.2-0.3-0.4-0.5-0.5c-0.6-0.4-1.3-0.6-2-0.4c0.2-0.5,0.2-1.1-0.1-1.6c-0.2-0.3-0.5-0.5-0.9-0.6
		C34.5,63.9,34.2,63.9,33.9,64.1z M37.5,66.9c0.2,0.1,0.4,0.3,0.5,0.5c0.1,0.2,0.2,0.4,0.3,0.7c0.1,0.3,0,0.6,0,0.9
		c-0.1,0.3-0.2,0.5-0.4,0.8c-0.1,0.1-0.2,0.2-0.3,0.3l-0.3,0.2L37,70.5L36,71.2l-0.1,0l0,0l-0.7-1L35,70.1l0,0l-0.8-1.2l-0.5-0.8
		l0.2-0.2l1.4-1C36,66.5,36.9,66.5,37.5,66.9z M35.4,64.9c0.4,0.6,0.3,1.4-0.3,1.8l-1.5,1.1l-0.1,0.1l-0.3-0.5l-0.3-0.4l-0.1-0.2
		L32.2,66L32,65.7l0.1-0.1l0.6-0.4c0,0,0,0,0,0c0,0,0,0,0,0l0.5-0.3l0.2-0.2l0,0l0,0l0.2-0.2c0.1-0.1,0.3-0.1,0.4-0.2
		c0.3-0.1,0.6-0.1,0.9,0.1C35.1,64.6,35.3,64.7,35.4,64.9z"/>
</g>
</svg>
