<?xml version="1.0" encoding="utf-8"?>
<!-- Generator: Adobe Illustrator 19.1.0, SVG Export Plug-In . SVG Version: 6.00 Build 0)  -->
<svg version="1.1" id="Layer_1" xmlns="http://www.w3.org/2000/svg" xmlns:xlink="http://www.w3.org/1999/xlink" x="0px" y="0px"
	 viewBox="-91 49.217 56.693 56.693" enable-background="new -91 49.217 56.693 56.693" xml:space="preserve">
<g>
	<path fill-rule="evenodd" clip-rule="evenodd" fill="#231F20" d="M-62.2607,54.1551c-13.6897,0-24.7909,11.0987-24.7909,24.7909
		c0,10.9532,7.1033,20.2458,16.9536,23.524c1.2388,0.2293,1.6938-0.538,1.6938-1.1927c0-0.5909-0.0229-2.5441-0.0337-4.6156
		c-6.8968,1.4998-8.3521-2.925-8.3521-2.925c-1.1277-2.8653-2.7526-3.6274-2.7526-3.6274c-2.2495-1.5387,0.1695-1.507,0.1695-1.507
		c2.4892,0.1748,3.8002,2.555,3.8002,2.555c2.211,3.7897,5.7995,2.6941,7.2143,2.0606c0.2225-1.6021,0.8648-2.6961,1.574-3.3151
		c-5.5065-0.6266-11.2952-2.7526-11.2952-12.2517c0-2.7065,0.9686-4.9181,2.5546-6.6542c-0.2574-0.6246-1.1061-3.1459,0.2402-6.5609
		c0,0,2.0819-0.6659,6.819,2.5415c1.9777-0.5494,4.0985-0.8248,6.2052-0.8345c2.1068,0.0097,4.2292,0.2851,6.2105,0.8345
		c4.7319-3.2075,6.8106-2.5415,6.8106-2.5415c1.3494,3.4149,0.5007,5.9362,0.2434,6.5609c1.5896,1.7361,2.5513,3.9477,2.5513,6.6542
		c0,9.522-5.7995,11.6183-11.32,12.2321c0.8892,0.7694,1.6814,2.278,1.6814,4.5908c0,3.3171-0.0285,5.9867-0.0285,6.8034
		c0,0.6599,0.4462,1.4329,1.7026,1.1895c9.8451-3.2818,16.9395-12.5712,16.9395-23.5208
		C-37.4698,65.2538-48.5693,54.1551-62.2607,54.1551z"/>
	<path fill="#231F20" d="M-77.6619,89.7492c-0.0545,0.1235-0.2486,0.1603-0.4249,0.0757c-0.18-0.081-0.2806-0.2489-0.2225-0.3724
		c0.0533-0.1267,0.2473-0.1619,0.4269-0.0774C-77.7024,89.4561-77.5997,89.6257-77.6619,89.7492L-77.6619,89.7492z M-77.967,89.5231
		"/>
	<path fill="#231F20" d="M-76.6576,90.8693c-0.1183,0.1094-0.3496,0.0585-0.5063-0.1147c-0.1624-0.1728-0.1924-0.4041-0.0726-0.5152
		c0.1219-0.1095,0.346-0.0581,0.5084,0.1147C-76.5658,90.529-76.5341,90.7583-76.6576,90.8693L-76.6576,90.8693z M-76.8942,90.6155"
		/>
	<path fill="#231F20" d="M-75.6802,92.2969c-0.152,0.1058-0.4005,0.0068-0.5541-0.2137c-0.152-0.2205-0.152-0.4851,0.0036-0.5909
		c0.1536-0.1058,0.3985-0.0104,0.5541,0.2081C-75.5251,91.9245-75.5251,92.1891-75.6802,92.2969L-75.6802,92.2969z
		 M-75.6802,92.2969"/>
	<path fill="#231F20" d="M-74.3412,93.6765c-0.1359,0.1499-0.4254,0.1094-0.6371-0.095c-0.2169-0.1996-0.277-0.4835-0.1411-0.6334
		c0.1379-0.15,0.429-0.1078,0.6422,0.095C-74.2618,93.2427-74.1965,93.5281-74.3412,93.6765L-74.3412,93.6765z M-74.3412,93.6765"/>
	<path fill="#231F20" d="M-72.4938,94.4775c-0.0601,0.1941-0.3388,0.2822-0.6194,0.1997c-0.2806-0.085-0.4639-0.3123-0.4073-0.5084
		c0.0581-0.1957,0.3384-0.2875,0.621-0.1993C-72.6193,94.0541-72.4357,94.2798-72.4938,94.4775L-72.4938,94.4775z M-72.4938,94.4775
		"/>
	<path fill="#231F20" d="M-70.4648,94.6258c0.0068,0.2044-0.2313,0.374-0.526,0.3776c-0.2963,0.0068-0.5364-0.1588-0.5396-0.36
		c0-0.2065,0.2329-0.374,0.5292-0.3792C-70.7066,94.2586-70.4648,94.4229-70.4648,94.6258L-70.4648,94.6258z M-70.4648,94.6258"/>
	<path fill="#231F20" d="M-68.577,94.3047c0.0353,0.1993-0.1696,0.4041-0.4623,0.4586c-0.2879,0.0529-0.554-0.0705-0.5909-0.2682
		c-0.0357-0.2044,0.1728-0.4093,0.4602-0.4623C-68.8768,93.9819-68.6142,94.1018-68.577,94.3047L-68.577,94.3047z M-68.577,94.3047"
		/>
</g>
</svg>
