<?xml version="1.0" encoding="utf-8"?>
<!-- Generator: Adobe Illustrator 19.2.1, SVG Export Plug-In . SVG Version: 6.00 Build 0)  -->
<svg version="1.1" id="Layer_1" xmlns="http://www.w3.org/2000/svg" xmlns:xlink="http://www.w3.org/1999/xlink" x="0px" y="0px"
	 viewBox="0 0 950 468.1" style="enable-background:new 0 0 950 468.1;" xml:space="preserve">
<style type="text/css">
	.st0{opacity:0.7;}
	.st1{fill:#FFFFFF;}
</style>
<g class="st0">
	<g>
		<path class="st1" d="M321.2,241.1l-100.9-0.6l-0.6-1.7l92.7-64.4L321.2,241.1z M223.3,238.6l95.8,0.6l-8.1-61.6L223.3,238.6z"/>
	</g>
	<g>
		<path class="st1" d="M287.5,306.4l-65.1-50l0.5-1.7l97.2-15.6l0.9,1.3L287.5,306.4z M225.2,256.3l61.6,47.3l31.7-62.2L225.2,256.3
			z"/>
	</g>
	<g>
		<path class="st1" d="M222.1,256.7l-2.9-18.2l100.9,0.6l0.2,1.9L222.1,256.7z M221.4,240.4l2.3,14.2L309,241L221.4,240.4z"/>
	</g>
	<g>
		<path class="st1" d="M219.6,241.1l-14-84.4L312,175l0.4,1.7L219.6,241.1z M207.9,158.9l13.2,79l88.3-61.4L207.9,158.9z"/>
	</g>
	<g>
		<path class="st1" d="M245,309.2l-23-53.1l1.4-1.1l64.1,49.3l-0.5,1.7L245,309.2z M225.2,258.6l21,48.7l38.5-3L225.2,258.6z"/>
	</g>
	<g>
		<path class="st1" d="M219.6,240.1l-53.3-62.5l41.1-21.2l13.8,82.9L219.6,240.1z M169.3,178.2l49.6,58.1L206,159.2L169.3,178.2z"/>
	</g>
	<g>
		<path class="st1" d="M245.2,309l-68-37l0.2-1.7l7.5-2l61.3,39.1L245.2,309z M180.1,271.5l43,23.4l-38.6-24.6L180.1,271.5z"/>
	</g>
	<g>
		<path class="st1" d="M157.3,362.8l-1.4-1l21-91.9l69.1,37.5v1.6L157.3,362.8z M178.2,272.7l-20,87.4l85.5-51.8L178.2,272.7z"/>
	</g>
	<g>
		<path class="st1" d="M220.3,376.7l-63.7-13.8l-0.3-1.7l88.8-53.8l1.4,1.1L220.3,376.7z M159.3,361.6l59.9,13l24.7-64.1
			L159.3,361.6z"/>
	</g>
	<g>
		<path class="st1" d="M245.1,309l-61-38.9l0.2-1.7l39.1-13.9l23.1,53.3L245.1,309z M186.8,269.5l56.8,36.2l-21.1-48.9L186.8,269.5z
			"/>
	</g>
	<g>
		<path class="st1" d="M173,67.7L155,47l30.2-46.6l1.7,0.6l-12.3,66.1L173,67.7z M157.4,46.9l15.8,18.2l11.1-59.6L157.4,46.9z"/>
	</g>
	<g>
		<path class="st1" d="M195.7,393.6l-39.5-30.9l0.7-1.7l62.9,13.6l0.4,1.7L195.7,393.6z M160.6,363.8l35.2,27.5l21.7-15.2
			L160.6,363.8z"/>
	</g>
	<g>
		<path class="st1" d="M184.1,271l-17.1-93l1.6-0.7l53.1,62.3L184.1,271z M169.4,181.1l15.9,86.5l33.7-28.2L169.4,181.1z"/>
	</g>
	<g>
		<path class="st1" d="M185,270.2l-0.9-1.6l35.7-29.8l1.5,0.6l2.7,17L185,270.2z M219.7,241.2l-30.4,25.5l32.6-11.6L219.7,241.2z"/>
	</g>
	<g>
		<path class="st1" d="M150.4,170.7l22.3-103.8l1.8-0.1l33.5,91.8L150.4,170.7z M174,70.3l-21.1,98l52.6-11.1L174,70.3z"/>
	</g>
	<g>
		<path class="st1" d="M152.3,170.8l-21.3-9.9l41.9-94.2l1.8,0.6L152.3,170.8z M133.5,160l17.6,8.2L171,75.6L133.5,160z"/>
	</g>
	<g>
		<path class="st1" d="M176.7,272.5l-9.8-94.4l1.9-0.3l17.1,92.2L176.7,272.5z M171.2,201.3l7.1,68.8l5.3-1.4L171.2,201.3z"/>
	</g>
	<g>
		<path class="st1" d="M157.5,363.2l-14.2-5.2l33.4-87.1l1.8,0.6L157.5,363.2z M145.7,356.9l10.5,3.9l17.6-77L145.7,356.9z"/>
	</g>
	<g>
		<path class="st1" d="M167.8,179l-16.6-8.6l0.3-1.8l55.1-11.7l0.6,1.8L167.8,179z M154.4,169.9l13.5,7l32.3-16.7L154.4,169.9z"/>
	</g>
	<g>
		
			<rect x="114.1" y="382.1" transform="matrix(0.5949 -0.8038 0.8038 0.5949 -301.6926 267.9816)" class="st1" width="1.9" height="102.4"/>
	</g>
	<g>
		<path class="st1" d="M145.4,357.8l-1.8-0.1L123.3,269l55.7,1.4L145.4,357.8z M125.6,270.9l19.2,83.4l31.5-82.1L125.6,270.9z"/>
	</g>
	<g>
		<path class="st1" d="M178.6,272.2l-55.6-1.4l44-93.3l1.8,0.3L178.6,272.2z M125.9,269l50.7,1.2l-9.3-89L125.9,269z"/>
	</g>
	<g>
		<path class="st1" d="M156.9,444.8l-1.7-0.6l0.6-82.3l1.5-0.7l39.6,31L156.9,444.8z M157.7,363.8l-0.6,77.7l37.3-48.9L157.7,363.8z
			"/>
	</g>
	<g>
		<path class="st1" d="M125.2,270.3l-1.8-0.6L151,168.1l18,9.4L125.2,270.3z M152.3,170.8l-24.2,89.2l38.6-81.7L152.3,170.8z"/>
	</g>
	<g>
		<path class="st1" d="M156.4,48.2L92.1,12.1l0.4-1.8L185.8,0l0.8,1.4L156.4,48.2z M95.6,11.9l60.2,33.8L184.1,2L95.6,11.9z"/>
	</g>
	<g>
		<path class="st1" d="M124.2,359.8l-0.6-89.8l1.9-0.2l20.3,88.6L124.2,359.8z M125.4,278.4l0.6,79.3l17.4-1.2L125.4,278.4z"/>
	</g>
	<g>
		<path class="st1" d="M155.3,444.7l-31.5-86.7l21.5-1.4l11.8,87.8L155.3,444.7z M126.3,359.6l27.8,76.4l-10.4-77.5L126.3,359.6z"/>
	</g>
	<g>
		<path class="st1" d="M155.2,444.5l-11.9-88.4l14.4,5.3l-0.6,82.9L155.2,444.5z M145.6,358.8l9.7,72.4l0.6-68.6L145.6,358.8z"/>
	</g>
	<g>
		<path class="st1" d="M133.1,160.8l-1.8-0.6l24-113.4l1.6-0.4L174.8,67l-0.3,0.6L133.1,160.8z M156.7,48.9L134.9,152l37.7-84.8
			L156.7,48.9z"/>
	</g>
	<g>
		<path class="st1" d="M125.3,270.2l-1.9-0.3l7.9-110.9l21.4,10L125.3,270.2z M133,161.8l-7,98.7l24.6-90.5L133,161.8z"/>
	</g>
	<g>
		<path class="st1" d="M132.9,161.4l-94.3-19.6l-0.4-1.7l117.3-94l1.5,0.9L132.9,161.4z M41,140.4l90.5,18.8l23.3-110L41,140.4z"/>
	</g>
	<g>
		<path class="st1" d="M155.8,445.1l-83.6-42.1l53.3-45.9l31.6,86.8L155.8,445.1z M75.5,402.7l79,39.9l-29.8-82.1L75.5,402.7z"/>
	</g>
	<g>
		<path class="st1" d="M39.4,141.7l-1.4-1.1L92.2,10l65.6,36.8L39.4,141.7z M93.1,12.6L41.1,138l113.4-90.9L93.1,12.6z"/>
	</g>
	<g>
		<path class="st1" d="M155.6,464.5l-82.3-61l0.9-1.6l82.9,41.7v20L155.6,464.5z M83.1,408.5l72.1,53.4v-17.1L83.1,408.5z"/>
	</g>
	<g>
		<path class="st1" d="M123.6,270.4L43.9,155.7l0.8-1.5l88.4,5.3L125.3,270L123.6,270.4z M46.5,156.3l77.1,111l7.5-106L46.5,156.3z"
			/>
	</g>
	<g>
		<path class="st1" d="M126,359.7H64.1l-0.7-1.5l60.3-88.8l1.7,0.6L126,359.7z M65.9,357.8h58.2l-0.6-84.9L65.9,357.8z"/>
	</g>
	<g>
		<path class="st1" d="M38.1,141.4L0,80.4l92.1-69.9l1.4,1.1L39.7,141.3L38.1,141.4z M2.5,80.9l36.2,58L90.5,14.1L2.5,80.9z"/>
	</g>
	<g>
		<path class="st1" d="M2.5,288.6L43.7,155l1.7-0.3L126,270.6L2.5,288.6z M45,157.3l-39.9,129l117.6-17.1L45,157.3z"/>
	</g>
	<g>
		<path class="st1" d="M132.2,161.4L44,156.2l-6-14.8l1-1.3l93.3,19.5L132.2,161.4z M45.3,154.3l74.3,4.4l-79.2-16.5L45.3,154.3z"/>
	</g>
	<g>
		<path class="st1" d="M73.3,404.5l-10.4-46.7H125l0.6,1.7L73.3,404.5z M65.2,359.7l9.2,41.4l48.1-41.4H65.2z"/>
	</g>
</g>
<g>
	<g>
		<g>
			<path class="st1" d="M508.3,275.6c-0.4-2.1-0.9-4.4-1.5-6.5c-0.7-2.5-1.6-4.9-2.7-7.3c-0.1-0.3-0.3-0.7-0.4-0.9
				c-9.3-20.3-29.6-34.8-53.2-35.2c-20.3-0.4-38.4,9.6-49.5,24.9c-2.4,3.2-4.4,6.8-6.1,10.5c-0.1,0.3-0.3,0.5-0.4,0.9
				c-1.1,2.4-1.9,4.8-2.7,7.3c-0.7,2.1-1.1,4.3-1.5,6.5c-0.4,2-0.7,4.1-0.8,6.2c-0.1,1.7-0.1,3.3-0.1,5.1c0,2.8,0.3,5.6,0.8,8.2
				c0.4,2.5,0.9,4.9,1.6,7.3c7.2,24.6,29.6,42.9,56.4,43.5c20.3,0.4,38.4-9.6,49.5-24.9L467,309.9c-4.4,4.1-10.1,6.5-16.1,6.8
				c-10.4,0.5-19.1-4.7-23.8-14.2c-1.1-2.3-2-4.7-2.5-7.3h2h48.5h33.6c0.3-1.7,0.5-3.6,0.7-5.5c0.1-1.7,0.1-3.3,0.1-5.1
				C509.1,281.6,508.9,278.5,508.3,275.6z M424.2,275.6c0.7-2.3,1.5-4.5,2.5-6.5c1.5-2.8,3.2-5.2,5.3-7.3h0.1H432
				c0.3-0.3,0.7-0.5,0.9-0.8c4.3-3.7,9.4-6.1,15-6.4c6.9-0.4,13,2,17.8,6.4c0.3,0.3,0.7,0.5,0.9,0.9c2,2,3.7,4.5,5.1,7.3
				c0.9,2,1.7,4.1,2.4,6.5H470h-45.9V275.6z"/>
		</g>
		<g>
			<path class="st1" d="M120.1,145.3c0-22.7-13.8-42.3-33.5-50.7c-6.6-2.8-13.8-4.4-21.4-4.4H0.4H0.3l0.1,153.2h33.4v-43.2h24.7
				l21.1,43.2h36.4l-25-49.7C108.4,184.4,120.1,166.2,120.1,145.3z M86.7,145.3c0,12-9.7,21.7-21.7,21.7H33.8v-43.2h31.2
				C77,123.6,86.7,133.3,86.7,145.3z"/>
		</g>
		<g>
			<path class="st1" d="M161.6,194.4v-11.8l-28.3,25.9l28.3,27.1v-11.8c27,0,43.1,23.4,43.1,47.2s-16.6,48-43.1,48
				c-28.7,0-43.1-24.2-43.1-48H85c0,42.3,34.3,76.6,76.6,76.6c42.3,0,76.6-34.3,76.6-76.6C238.3,228.5,204,194.4,161.6,194.4z"/>
		</g>
		<g>
			<path class="st1" d="M867.4,298.6c-3.7,11.2-12.9,17.5-23.1,18.1c-11.7,0.5-21.3-6.1-25.5-18.2c-0.9-2.7-1.6-5.6-1.9-8.8
				c-0.1-1.7-0.3-3.5-0.3-5.3c0-0.8,0-1.7,0.1-2.5c0.3-3.2,0.8-6.1,1.9-8.9c3.9-10.8,12.9-17.9,23-18.5c11.7-0.5,21.3,6.4,25.4,18.6
				l32.8-5.9c-7.7-23.7-29.8-41.2-55.7-41.6c-27.1-0.5-50.1,17.3-58.1,41.6c-1.7,5.2-2.7,10.8-2.9,16.5c0,1.1,0,2.1,0,3.2
				c0,0.3,0,0.7,0,0.9c0.1,5.7,1.2,11.2,2.9,16.5c7.7,23.7,29.8,41.2,55.7,41.6c27.1,0.5,50.1-17.3,58.1-41.6L867.4,298.6z"/>
		</g>
		<g>
			<rect x="916.2" y="229.2" class="st1" width="33.4" height="114.2"/>
		</g>
		<g>
			<path class="st1" d="M947.2,206.9h-28c-1.5,0-2.8-1.2-2.8-2.8V176c0-1.5,1.2-2.8,2.8-2.8h28c1.5,0,2.8,1.2,2.8,2.8v28.1
				C950,205.7,948.7,206.9,947.2,206.9z"/>
		</g>
		<g>
			<path class="st1" d="M762.1,270.7c-10.2-13-35.6-22.1-48-26.6c-11-4-15-7.2-14.9-12.6c0.4-10.4,10.5-12.6,17.3-12.6
				c15,0,17.3,15.8,17.3,15.8l29.5-7.3c0,0-5.7-37.4-51.7-37.4c-14.9,0-31.1,8.8-39.6,19.9c-7.6,10-8.5,22.2-3.6,34.4
				c6.5,16.4,19.9,21.3,33.5,26.2c10.1,3.7,23.7,7.4,32.2,16c4.1,4.1,4.9,11.2,2,17.2c-3.1,6.5-11.7,11-20.1,11
				c-18.3,0-25.8-16.5-26.1-17.2l-0.9-2.3l-33.2,6.6l0.8,2.8c0.1,0.4,3.1,10.4,12,20.5c8.2,9.3,23.3,20.5,48.4,20.5
				c21.4,0,38.4-9.2,47.6-25.8C773.2,304.4,773.6,285.2,762.1,270.7z"/>
		</g>
		<g>
			<path class="st1" d="M321.3,225.7c-12.1-0.3-24.6,3.2-31.1,9.3v-5.6h-33.4v167.4h33.4V337c5.8,5.6,17.7,8.9,28.9,9.2
				c33.9,0.7,57.8-27.4,57.3-61.3C375.6,252.9,353.2,226.4,321.3,225.7z M317.8,316.9c-15.6,0.8-27.5-11.3-27.7-31.9v-0.8
				c0.1-16.8,11.6-29,24.9-29.6c15.6-0.8,27.7,12.1,27.7,32.7C342.7,305.5,331.1,316.1,317.8,316.9z"/>
		</g>
	</g>
	<g>
		<path class="st1" d="M585.8,226.1c-19.9,0-29.2,13.2-29.2,13.2v-10.1h-31.1v114.2h31.1c0,0,0-36.2,0-53.7
			c0-18.7,8.6-33.6,23.9-33.6c15.3,0,23.5,13.3,23.5,33.6v53.7h31.5c0,0,0-51.3,0-63.7C635.6,267.5,632.6,226.1,585.8,226.1z"/>
	</g>
</g>
</svg>
