<?xml version="1.0" encoding="utf-8"?>
<!-- Generator: Adobe Illustrator 19.2.1, SVG Export Plug-In . SVG Version: 6.00 Build 0)  -->
<svg version="1.1" id="Layer_1" xmlns="http://www.w3.org/2000/svg" xmlns:xlink="http://www.w3.org/1999/xlink" x="0px" y="0px"
	 width="58px" height="83px" viewBox="0 0 58 83" style="enable-background:new 0 0 58 83;" xml:space="preserve">
<style type="text/css">
	.st0{opacity:0.7;}
	.st1{fill:#FFFFFF;}
</style>
<g class="st0">
	<g>
		<path class="st1" d="M57.3,43.4l-17.8-0.1L39.4,43l16.3-11.4L57.3,43.4z M40.1,42.9L57,43.1l-1.4-10.9L40.1,42.9z"/>
	</g>
	<g>
		<path class="st1" d="M51.4,54.9l-11.5-8.8l0.1-0.3l17.1-2.7l0.2,0.2L51.4,54.9z M40.4,46.1l10.9,8.3l5.6-11L40.4,46.1z"/>
	</g>
	<g>
		<path class="st1" d="M39.9,46.1l-0.5-3.2l17.8,0.1l0,0.3L39.9,46.1z M39.8,43.3l0.4,2.5l15-2.4L39.8,43.3z"/>
	</g>
	<g>
		<path class="st1" d="M39.4,43.4L37,28.5l18.7,3.2l0.1,0.3L39.4,43.4z M37.4,28.9l2.3,13.9L55.3,32L37.4,28.9z"/>
	</g>
	<g>
		<path class="st1" d="M43.9,55.4l-4-9.4l0.2-0.2l11.3,8.7l-0.1,0.3L43.9,55.4z M40.4,46.5l3.7,8.6l6.8-0.5L40.4,46.5z"/>
	</g>
	<g>
		<path class="st1" d="M39.4,43.2l-9.4-11l7.2-3.7l2.4,14.6L39.4,43.2z M30.6,32.3l8.7,10.2L37,29L30.6,32.3z"/>
	</g>
	<g>
		<path class="st1" d="M44,55.4l-12-6.5l0-0.3l1.3-0.4l10.8,6.9L44,55.4z M32.5,48.8l7.6,4.1l-6.8-4.3L32.5,48.8z"/>
	</g>
	<g>
		<path class="st1" d="M28.4,64.9l-0.2-0.2l3.7-16.2l12.2,6.6v0.3L28.4,64.9z M32.1,49l-3.5,15.4l15.1-9.1L32.1,49z"/>
	</g>
	<g>
		<path class="st1" d="M39.6,67.3l-11.2-2.4l-0.1-0.3l15.7-9.5l0.2,0.2L39.6,67.3z M28.8,64.7l10.5,2.3l4.4-11.3L28.8,64.7z"/>
	</g>
	<g>
		<path class="st1" d="M43.9,55.4l-10.8-6.9l0-0.3l6.9-2.5l4.1,9.4L43.9,55.4z M33.7,48.4l10,6.4L40,46.1L33.7,48.4z"/>
	</g>
	<g>
		<path class="st1" d="M31.2,12.8l-3.2-3.6L33.4,1l0.3,0.1l-2.2,11.6L31.2,12.8z M28.5,9.1l2.8,3.2l2-10.5L28.5,9.1z"/>
	</g>
	<g>
		<path class="st1" d="M35.2,70.3l-7-5.5l0.1-0.3L39.5,67l0.1,0.3L35.2,70.3z M29,65l6.2,4.9l3.8-2.7L29,65z"/>
	</g>
	<g>
		<path class="st1" d="M33.2,48.7l-3-16.4l0.3-0.1l9.4,11L33.2,48.7z M30.6,32.8l2.8,15.2l5.9-5L30.6,32.8z"/>
	</g>
	<g>
		<path class="st1" d="M33.3,48.5l-0.2-0.3l6.3-5.3l0.3,0.1l0.5,3L33.3,48.5z M39.4,43.4l-5.4,4.5l5.8-2L39.4,43.4z"/>
	</g>
	<g>
		<path class="st1" d="M27.2,31l3.9-18.3l0.3,0l5.9,16.2L27.2,31z M31.4,13.3l-3.7,17.3l9.3-2L31.4,13.3z"/>
	</g>
	<g>
		<path class="st1" d="M27.6,31l-3.8-1.7l7.4-16.6l0.3,0.1L27.6,31z M24.2,29.1l3.1,1.4l3.5-16.3L24.2,29.1z"/>
	</g>
	<g>
		<path class="st1" d="M31.9,48.9l-1.7-16.6l0.3-0.1l3,16.3L31.9,48.9z M30.9,36.4l1.3,12.1l0.9-0.2L30.9,36.4z"/>
	</g>
	<g>
		<path class="st1" d="M28.5,64.9L26,64l5.9-15.4l0.3,0.1L28.5,64.9z M26.4,63.8l1.8,0.7l3.1-13.6L26.4,63.8z"/>
	</g>
	<g>
		<path class="st1" d="M30.3,32.4l-2.9-1.5l0.1-0.3l9.7-2.1l0.1,0.3L30.3,32.4z M27.9,30.8l2.4,1.2l5.7-2.9L27.9,30.8z"/>
	</g>
	<g>
		<rect x="20.8" y="68.3" transform="matrix(0.5949 -0.8038 0.8038 0.5949 -53.623 48.1799)" class="st1" width="0.3" height="18"/>
	</g>
	<g>
		<path class="st1" d="M26.3,64L26,64l-3.6-15.6l9.8,0.2L26.3,64z M22.9,48.6l3.4,14.7l5.6-14.5L22.9,48.6z"/>
	</g>
	<g>
		<path class="st1" d="M32.2,48.9l-9.8-0.2l7.8-16.5l0.3,0.1L32.2,48.9z M22.9,48.3l8.9,0.2l-1.6-15.7L22.9,48.3z"/>
	</g>
	<g>
		<path class="st1" d="M28.4,79.3l-0.3-0.1l0.1-14.5l0.3-0.1l7,5.5L28.4,79.3z M28.5,65l-0.1,13.7l6.6-8.6L28.5,65z"/>
	</g>
	<g>
		<path class="st1" d="M22.8,48.5l-0.3-0.1l4.9-17.9l3.2,1.6L22.8,48.5z M27.6,31l-4.3,15.7l6.8-14.4L27.6,31z"/>
	</g>
	<g>
		<path class="st1" d="M28.3,9.4L16.9,3L17,2.7l16.5-1.8l0.2,0.2L28.3,9.4z M17.6,3l10.6,6l5-7.7L17.6,3z"/>
	</g>
	<g>
		<path class="st1" d="M22.6,64.3l-0.1-15.8l0.3,0l3.6,15.6L22.6,64.3z M22.8,50l0.1,14l3.1-0.2L22.8,50z"/>
	</g>
	<g>
		<path class="st1" d="M28.1,79.3L22.6,64l3.8-0.2l2.1,15.5L28.1,79.3z M23,64.3l4.9,13.5l-1.8-13.7L23,64.3z"/>
	</g>
	<g>
		<path class="st1" d="M28.1,79.2L26,63.7l2.5,0.9l-0.1,14.6L28.1,79.2z M26.4,64.2l1.7,12.8l0.1-12.1L26.4,64.2z"/>
	</g>
	<g>
		<path class="st1" d="M24.2,29.2l-0.3-0.1l4.2-20l0.3-0.1l3.1,3.6l-0.1,0.1L24.2,29.2z M28.3,9.5l-3.8,18.2l6.7-15L28.3,9.5z"/>
	</g>
	<g>
		<path class="st1" d="M22.8,48.5l-0.3-0.1l1.4-19.6l3.8,1.8L22.8,48.5z M24.2,29.4l-1.2,17.4l4.3-16L24.2,29.4z"/>
	</g>
	<g>
		<path class="st1" d="M24.1,29.3L7.5,25.9l-0.1-0.3L28.2,9l0.3,0.2L24.1,29.3z M7.9,25.6l16,3.3L28,9.6L7.9,25.6z"/>
	</g>
	<g>
		<path class="st1" d="M28.2,79.4l-14.7-7.4l9.4-8.1l5.6,15.3L28.2,79.4z M14,71.9l13.9,7l-5.3-14.5L14,71.9z"/>
	</g>
	<g>
		<path class="st1" d="M7.7,25.9l-0.2-0.2l9.6-23l11.6,6.5L7.7,25.9z M17.1,3.1L8,25.2l20-16L17.1,3.1z"/>
	</g>
	<g>
		<path class="st1" d="M28.2,82.8L13.6,72l0.2-0.3l14.6,7.3v3.5L28.2,82.8z M15.4,72.9l12.7,9.4v-3L15.4,72.9z"/>
	</g>
	<g>
		<path class="st1" d="M22.5,48.6L8.5,28.3l0.2-0.3L24.2,29l-1.4,19.5L22.5,48.6z M8.9,28.4L22.5,48l1.3-18.7L8.9,28.4z"/>
	</g>
	<g>
		<path class="st1" d="M22.9,64.3H12L11.9,64l10.6-15.7l0.3,0.1L22.9,64.3z M12.3,64h10.3l-0.1-15L12.3,64z"/>
	</g>
	<g>
		<path class="st1" d="M7.4,25.8L0.7,15.1L16.9,2.7l0.2,0.2L7.7,25.8L7.4,25.8z M1.1,15.2l6.4,10.2l9.1-22L1.1,15.2z"/>
	</g>
	<g>
		<path class="st1" d="M1.1,51.8l7.3-23.6l0.3-0.1l14.2,20.4L1.1,51.8z M8.6,28.6l-7,22.7l20.7-3L8.6,28.6z"/>
	</g>
	<g>
		<path class="st1" d="M24,29.3L8.5,28.4l-1.1-2.6l0.2-0.2L24.1,29L24,29.3z M8.7,28.1l13.1,0.8L7.8,26L8.7,28.1z"/>
	</g>
	<g>
		<path class="st1" d="M13.6,72.2L11.8,64h11l0.1,0.3L13.6,72.2z M12.2,64.3l1.6,7.3l8.5-7.3H12.2z"/>
	</g>
</g>
<g>
	<g>
		<g>
			<path class="st1" d="M21.9,23.7c0-4-2.4-7.5-5.9-8.9c-1.2-0.5-2.4-0.8-3.8-0.8H0.8h0l0,27h5.9v-7.6H11l3.7,7.6h6.4l-4.4-8.8
				C19.8,30.6,21.9,27.4,21.9,23.7z M16,23.7c0,2.1-1.7,3.8-3.8,3.8H6.7v-7.6h5.5C14.3,19.9,16,21.6,16,23.7z"/>
		</g>
		<g>
			<path class="st1" d="M29.2,32.4v-2.1l-5,4.6l5,4.8v-2.1c4.8,0,7.6,4.1,7.6,8.3c0,4.2-2.9,8.5-7.6,8.5c-5.1,0-7.6-4.3-7.6-8.5
				h-5.9c0,7.5,6,13.5,13.5,13.5s13.5-6,13.5-13.5C42.7,38.4,36.7,32.4,29.2,32.4z"/>
		</g>
	</g>
</g>
</svg>
