<?xml version="1.0" encoding="utf-8"?>
<!-- Generator: Adobe Illustrator 19.2.1, SVG Export Plug-In . SVG Version: 6.00 Build 0)  -->
<svg version="1.1" id="Layer_1" xmlns="http://www.w3.org/2000/svg" xmlns:xlink="http://www.w3.org/1999/xlink" x="0px" y="0px"
	 viewBox="0 0 29.6 32" style="enable-background:new 0 0 29.6 32;" xml:space="preserve">
<style type="text/css">
	.st0{fill:#1A1A1A;}
</style>
<g>
	<path class="st0" d="M14.9,6.8c0-2.8-1.7-5.3-4.2-6.3C9.9,0.2,9,0,8.1,0H0h0l0,19.1h4.2v-5.4h3.1l2.6,5.4h4.5l-3.1-6.2
		C13.5,11.7,14.9,9.5,14.9,6.8z M10.8,6.8c0,1.5-1.2,2.7-2.7,2.7H4.2V4.2h3.9C9.6,4.2,10.8,5.4,10.8,6.8z"/>
	<path class="st0" d="M20.1,13v-1.5l-3.5,3.2l3.5,3.4v-1.5c3.4,0,5.4,2.9,5.4,5.9c0,3-2.1,6-5.4,6c-3.6,0-5.4-3-5.4-6h-4.2
		c0,5.3,4.3,9.5,9.5,9.5c5.3,0,9.5-4.3,9.5-9.5C29.6,17.2,25.4,13,20.1,13z"/>
</g>
</svg>
