<?xml version="1.0" encoding="utf-8"?>
<!-- Generator: Adobe Illustrator 20.1.0, SVG Export Plug-In . SVG Version: 6.00 Build 0)  -->
<svg version="1.1" id="Layer_1" xmlns="http://www.w3.org/2000/svg" xmlns:xlink="http://www.w3.org/1999/xlink" x="0px" y="0px"
	 viewBox="0 0 85 82" enable-background="new 0 0 85 82" xml:space="preserve">
<g>
	<path fill="#F272A6" d="M38.1,15.7l-0.2,0.1l1.5,3.2l0.4-0.3L38.5,16c1.8-0.8,3.8-0.7,5.4,0.1l0.5-0.3
		C42.5,14.8,40.2,14.7,38.1,15.7z"/>
	<path fill="#89DB6E" d="M37.1,18.2c-0.8,0.3-1.4,0.8-2,1.4l0.4,0.3c0.5-0.4,1-0.8,1.6-1.1l0.6,1.2l0.4-0.3l-0.8-1.6L37.1,18.2z"/>
	<polygon fill="#6FAEF5" points="46.7,13.2 47.1,14.1 47.7,13.8 50.6,12 50.4,11.5 	"/>
	<polygon fill="#F4B971" points="27.6,38.3 26.5,36.6 24.3,34.4 24.8,33.9 24.6,33.5 23.6,34.4 	"/>
	<polygon fill="#F47184" points="28.6,24.7 27.6,25.7 27.3,26 27.6,26.3 27.8,26.1 28.1,25.9 28.6,25.4 28.7,25.5 29,25.4 
		29.2,25.3 	"/>
	<path fill="#89DB6E" d="M20.4,34.7L19.1,36l3.2,3.1l0.6-0.1L19.8,36l0.6-0.6l3.8,3.7c0,0,0,0,0,0c0,0,0.1,0,0.1,0
		c0.2,0.1,0.4,0.1,0.6,0.2c0.1,0.1,0.2,0.1,0.3,0.2c0.1,0,0.1,0.1,0.2,0.1L20.4,34.7z"/>
	<path fill="#6FAEF5" d="M43.8,60.5c-0.1-0.3-0.3-0.6-0.5-0.9c0,0,0,0-0.1-0.1c-0.1-0.1-0.2-0.2-0.2-0.3c-0.1-0.1-0.2-0.2-0.4-0.4
		c-0.3-0.3-0.7-0.5-1.1-0.7c-0.2-0.1-0.4-0.2-0.6-0.2c0-0.3,0-0.6,0-1c0-0.1,0-0.1,0-0.2c0-0.3-0.1-0.5-0.1-0.7
		c0-0.2-0.1-0.4-0.2-0.5c-0.3-0.7-0.7-1.4-1.2-2c-0.2-0.2-0.5-0.5-0.7-0.7c-0.1-0.1-0.3-0.2-0.4-0.3c-0.3-0.2-0.7-0.4-1-0.6
		c-0.2-0.1-0.5-0.2-0.7-0.3c-0.2-0.1-0.4-0.1-0.7-0.1c-0.3,0-0.5-0.1-0.8-0.1c-0.3,0-0.5,0-0.8,0c-0.3,0-0.5,0.1-0.8,0.1
		c-1.8,0.4-3.3,1.6-4.1,3.3c-0.4-0.2-0.9-0.2-1.3-0.2c-0.8,0.1-1.5,0.5-2.1,1.1c-0.5,0.6-0.8,1.4-0.7,2.2c0,0,0,0,0,0
		c0,0.1,0,0.1,0,0.2c-0.2,0-0.4,0-0.5,0c-0.1,0-0.3,0-0.4,0c-0.1,0-0.2,0-0.3,0.1c-1.2,0.2-2.2,0.8-2.9,1.7
		c-0.9,1.1-1.3,2.4-1.1,3.9c0.3,2.9,2.3,4.7,4.8,4.7c0.2,0,0.4,0,0.5,0L40,67.1c1.2-0.1,2.4-0.7,3.2-1.7c0.2-0.3,0.4-0.6,0.6-0.9
		c0.1-0.2,0.2-0.4,0.2-0.6c0-0.1,0.1-0.2,0.1-0.3c0-0.1,0-0.2,0.1-0.4c0-0.2,0.1-0.3,0.1-0.5c0-0.3,0-0.5,0-0.8
		C44.1,61.4,44,60.9,43.8,60.5z M43.6,63.3C43.6,63.3,43.6,63.3,43.6,63.3c-0.1,0.2-0.1,0.4-0.2,0.6c-0.1,0.2-0.2,0.4-0.3,0.6
		c-0.4,0.6-0.9,1.1-1.5,1.5c-0.3,0.2-0.6,0.3-1,0.4c-0.2,0.1-0.5,0.1-0.7,0.2l-14.5,1.6c-2.6,0.3-4.5-1.5-4.8-4.3
		c-0.1-1.3,0.2-2.5,1-3.5c0.7-0.9,1.7-1.5,2.9-1.6c0,0,0.1,0,0.1,0c0.1,0,0.2,0,0.3,0c0.1,0,0.3,0,0.4,0c0.1,0,0.2,0,0.3,0L26,59
		l0-0.1l-0.1-0.2c-0.1-0.2-0.1-0.3-0.1-0.5c-0.1-0.7,0.1-1.3,0.6-1.9s1-0.9,1.7-0.9c0.4,0,0.9,0,1.3,0.2l0.2,0.1l0-0.1l0-0.1l0-0.1
		c0.6-1.3,1.6-2.3,2.9-2.9c0.5-0.2,1.1-0.4,1.6-0.4c0.1,0,0.1,0,0.2,0c0.6,0,1.1,0,1.7,0.1c0.2,0.1,0.5,0.1,0.7,0.2
		c0.3,0.1,0.6,0.3,0.8,0.4c0,0,0.1,0.1,0.1,0.1c0.1,0.1,0.3,0.2,0.4,0.3c0.9,0.7,1.5,1.6,1.9,2.7c0.1,0.2,0.1,0.4,0.1,0.6
		c0,0.2,0.1,0.4,0.1,0.6c0,0,0,0.1,0,0.1c0,0.3,0,0.6,0,1c0,0,0,0,0,0l0,0.2l0.2,0l0,0c0.3,0.1,0.5,0.2,0.7,0.3
		c0.2,0.1,0.4,0.2,0.5,0.3c0.1,0.1,0.3,0.2,0.4,0.3c0.1,0.1,0.2,0.2,0.4,0.4c0.3,0.3,0.5,0.7,0.7,1.1c0.2,0.4,0.3,0.9,0.4,1.3
		c0,0.2,0,0.4,0,0.5C43.7,62.8,43.6,63,43.6,63.3z"/>
	<polygon fill="#6FAEF5" points="35.1,57.4 34,57.5 33.2,57.6 31.3,57.8 31.3,58.3 32.7,58.2 33.5,58.1 34.3,58 30.3,63.1 30,63.5 
		29.7,63.8 30.1,64.1 30.3,63.8 30.6,63.4 34.7,58.3 35.1,61.3 35.4,61.3 35.6,61.2 35.5,60.6 	"/>
	<polygon fill="#89DB6E" points="50.8,26.5 51.6,26.2 54.7,37.7 55.1,37.4 52,25.6 50.2,26.1 53.5,38.4 53.9,38.2 	"/>
	<polygon fill="#89DB6E" points="54.1,38.7 53.6,39 53.7,39.5 54.2,39.4 	"/>
	<polygon fill="#89DB6E" points="55.6,39.3 55.2,37.9 54.8,38.2 55.1,39.3 	"/>
	<polygon fill="#89DB6E" points="54.1,38.7 53.9,38.2 53.5,38.4 53.6,39 	"/>
	<polygon fill="#89DB6E" points="54.8,38.2 55.2,37.9 55.1,37.4 54.7,37.7 	"/>
	<polygon fill="#AF73EF" points="59.4,38.7 58.6,38.9 57.9,36.3 57.4,36.6 58.2,39.6 58.8,39.4 59.9,38.7 59.1,35.6 58.6,35.9 	"/>
	<polygon fill="#AF73EF" points="56.3,30.1 57.1,29.9 58.5,35.4 58.9,35.1 57.4,29.3 55.6,29.8 57.3,36.1 57.7,35.8 	"/>
	<polygon fill="#AF73EF" points="60,39.1 59.9,38.7 58.8,39.4 	"/>
	<polygon fill="#AF73EF" points="58.6,35.9 59.1,35.6 58.9,35.1 58.5,35.4 	"/>
	<polygon fill="#AF73EF" points="57.9,36.3 57.7,35.8 57.3,36.1 57.4,36.6 	"/>
	<polygon fill="#F4B971" points="63.6,37.8 62.8,38 59.6,25.8 60.1,25.6 59.9,25.2 58.9,25.4 62.4,38.6 64.2,38.1 61.5,27.8 
		60.6,26.3 	"/>
	<polygon fill="#F4B971" points="59.9,25.2 60.1,25.6 60.4,25.6 60.6,26.3 61.5,27.8 60.7,24.9 	"/>
	<path fill="#6FAEF5" d="M43.9,32c0,0.1,0,0.2,0,0.3l0.5-0.1l2.1,8.1l0.5-0.1l-2.3-8.7l-0.9,0.2C43.8,31.8,43.9,31.9,43.9,32z"/>
	<path fill="#6FAEF5" d="M43.5,32.1C43.5,32.1,43.5,32.1,43.5,32.1C43.4,32.1,43.4,32.1,43.5,32.1C43.4,32.1,43.4,32.1,43.5,32.1
		C43.4,32.2,43.5,32.2,43.5,32.1C43.5,32.2,43.5,32.1,43.5,32.1z"/>
	<path fill="#6FAEF5" d="M43.6,32.6c-0.2,0.1-0.4-0.1-0.5-0.3c0-0.1,0-0.2,0-0.3l-0.1,0l2.2,8.4l0.5-0.1L43.6,32.6z"/>
	<path fill="#6FAEF5" d="M43,32.3c0.1,0.2,0.3,0.3,0.5,0.3l0-0.2l0.4-0.1c0-0.1,0-0.2,0-0.3c0-0.1-0.1-0.1-0.1-0.2L43,32
		C43,32.1,43,32.2,43,32.3z M43.4,32.1C43.4,32.1,43.4,32.1,43.4,32.1C43.5,32.1,43.5,32.1,43.4,32.1C43.5,32.1,43.5,32.2,43.4,32.1
		C43.5,32.2,43.4,32.2,43.4,32.1C43.4,32.1,43.4,32.1,43.4,32.1z"/>
	<path fill="#F272A6" d="M48.4,34.2C48.4,34.2,48.4,34.2,48.4,34.2c-0.1-0.1-0.1-0.1-0.1-0.1c0-0.1-0.1-0.1-0.1-0.2
		c0-0.1,0-0.2,0-0.2l-1.1-4.2l0.8-0.2l2.8,10.5l0.5-0.1l-2.9-11.1l-1.8,0.5L49.4,40l0.5-0.1L48.4,34.2z"/>
	<path fill="#F272A6" d="M48.3,34c0,0.1,0,0.1,0.1,0.2c0,0,0,0,0.1,0.1c0,0,0,0,0.1,0l-0.1-0.5C48.3,33.8,48.2,33.9,48.3,34z"/>
	<g>
		<polygon fill="#7886A2" points="13,38.9 12.7,39.2 13.6,40.2 14.3,40.1 		"/>
		<polygon fill="#7886A2" points="64.2,43.8 64.4,44.7 65.2,44.5 65.3,44.5 68.4,43.7 68.1,42.7 		"/>
		<path fill="#7886A2" d="M76.8,54l1.4-0.9l-2.9-4.7l-8.9-33.7l-5.7,1.5l-6.6-15L22,16l2.5,5.4l-18.7,19L6.4,41l1.3-0.1l-0.5-0.5
			l17.7-18l0.7-0.8l4.9-5l4.8,4.8l-6.5,4l-0.2,0.1l-6.5,4l2.4,3.9l0.3,0.4l1.6,2.7l1.1,1.8l2.4,3.8L31,42l-0.5-0.8l-1.1-1.8l-1.8-3
			l-1.1-1.8l-3-4.8l8.9-5.5l4.5,17l1-0.1L35,30.1l-1.5-5.7l22.3-5.9l1-0.3l3.7-1l0.7-0.2l4.6-1.2l7.5,28.6l1.1,4.3l1.2,4.7l0.3,1
			l1.9,7.3L73,63.1l-10.3,2.7l0.1,1l16.3-4.3L76.8,54z M76.9,52.8L76.6,53l-0.3-1.3L76.9,52.8z M35.4,19.9l-0.4-0.3l-4.5-4.4
			l-5.4,5.5l-1.9-4.1l30.3-14L60,16.4l-3.8,1L52.3,11l-1.7,1l-2.9,1.8l-3.3,2l-0.5,0.3l-4.2,2.6L39.3,19l-1.3,0.8L37.6,20l-1.3,0.8
			L35.4,19.9z M52,12.4l3.2,5.3L34.7,23L52,12.4z"/>
		<polygon fill="#7886A2" points="43.1,40.7 39.3,26 38.8,26.2 42.6,40.7 		"/>
		<path fill="#7886A2" d="M59.4,40.7c0,0.1,0.1,0.1,0.1,0.2c0,0.1,0.1,0.2,0.1,0.2l7.5-2l-0.1-0.5L59.4,40.7z"/>
		<path fill="#7886A2" d="M62.1,44.3l-1.8,0.5c0,0,0,0.1,0,0.1l0.1,0.9l1.9-0.5L62.1,44.3z"/>
		<polygon fill="#7886A2" points="60.3,49.4 67.4,47.6 67.4,47.1 60.8,48.8 60.5,48.9 60.3,49.4 		"/>
		<polygon fill="#7886A2" points="61.2,52.6 61.2,53.1 70.3,50.7 70.2,50.2 		"/>
		<polygon fill="#7886A2" points="71.1,54 61.6,56.5 61.7,57 71.3,54.4 		"/>
		<polygon fill="#7886A2" points="62.1,60.8 62.8,60.6 62.7,60.1 62,60.3 		"/>
		<path fill="#7886A2" d="M59,42.1c-0.1-0.3-0.2-0.5-0.3-0.7c-0.1-0.2-0.2-0.3-0.3-0.4c0,0-0.1-0.1-0.1-0.1c0,0,0,0,0,0
			c-0.5-0.4-1.1-0.7-1.8-0.7c-0.1,0-0.2,0-0.3,0l-27.1,3h0c-0.1,0-0.7,0-0.9-0.1C28.1,43,28,43,27.9,42.9l-2.7-2.2
			c-0.4-0.3-0.8-0.5-1.2-0.6c-0.2,0-0.3-0.1-0.5-0.1C23.4,40.1,4,42.3,4,42.3c-0.7,0.1-1.3,0.4-1.7,1c-0.4,0.5-0.6,1.2-0.5,1.9
			L5.5,79c0.1,0.7,0.4,1.3,1,1.7c0.5,0.4,1,0.6,1.6,0.6c0.1,0,52.1-5.9,52.1-5.9c1.4-0.2,2.4-1.4,2.3-2.9C62.4,72.6,59,42.2,59,42.1
			z M60,74.5c0,0-51.9,5.9-51.9,5.9c-0.4,0-0.7-0.1-1-0.3c-0.3-0.3-0.5-0.6-0.6-1.1L2.7,45c0-0.4,0.1-0.8,0.3-1.2s0.6-0.5,1.1-0.6
			l19.3-2.2c0,0,0.1,0,0.1,0c0.3,0,0.7,0.2,1.1,0.4l2.7,2.2c0.2,0.2,0.5,0.3,0.8,0.4c0.3,0.1,0.6,0.1,0.8,0.1c0,0,3.8-0.4,8.5-1
			c0.3,0,19-2.1,19-2.1c0.2,0,0.4,0.1,0.6,0.1c0.1,0,0.2,0.1,0.2,0.1c0.1,0.1,0.2,0.2,0.3,0.3c0.1,0.1,0.2,0.2,0.2,0.3
			c0.1,0.2,0.2,0.4,0.2,0.6l0.3,2.8l3.1,27.4C61.6,73.6,60.9,74.4,60,74.5z"/>
	</g>
</g>
</svg>
